<svg id="SvgjsSvg1175" width="288" height="288" xmlns="http://www.w3.org/2000/svg" version="1.1" xmlns:xlink="http://www.w3.org/1999/xlink" xmlns:svgjs="http://svgjs.com/svgjs"><defs id="SvgjsDefs1176"></defs><g id="SvgjsG1177" transform="matrix(1,0,0,1,0,0)"><svg xmlns="http://www.w3.org/2000/svg" enable-background="new 0 0 100 100" viewBox="0 0 100 100" width="288" height="288"><symbol id="a" viewBox="0 -24 360 24"><rect width="360" height="24" y="-24" fill="#010101" fill-opacity="0" class="color010101 svgShape"></rect><rect width="40" height="16" x="312" y="-21" fill="none" opacity=".9"></rect><path fill="#ffffff" d="M266-19l8.8,10.9C274.5-7.8,271.1-5,266-5s-8.5-2.8-8.8-3.1L266-19L266-19L266-19L266-19L266-19z" opacity=".9" class="colorfff svgShape"></path><rect width="16" height="16" x="258" y="-20" fill="none"></rect><polygon fill="#ffffff" points="277 -19 291 -19 291 -5" opacity=".9" class="colorfff svgShape"></polygon><rect width="16" height="16" x="276" y="-20" fill="none"></rect><rect width="16" height="16" x="296" y="-20" fill="none"></rect><path fill="#ffffff" d="M306-6v1h-3v-1h-3v-13h9v13H306z" opacity=".9" class="colorfff svgShape"></path></symbol><path fill="#66ccff" d="M20.5,75.3l-0.4-0.2c-0.2-0.1-0.4-0.1-0.5,0l-0.4,0.3c-0.5,0.3-0.8,0.9-0.8,1.5v1.6c0,0.3,0.2,0.5,0.5,0.5h2   c0.3,0,0.5-0.2,0.5-0.5v-1.6C21.3,76.2,21,75.6,20.5,75.3z M20.3,78h-1v-1.1c0-0.3,0.1-0.5,0.4-0.7l0.1-0.1l0.1,0.1   c0.2,0.2,0.4,0.4,0.4,0.7V78z" class="color594454 svgShape"></path><path fill="#66ccff" d="M86.8,82h-0.5V66h0.5c0.3,0,0.5-0.2,0.5-0.5v-3c0-0.3-0.2-0.5-0.5-0.5h-0.5v-1.5c0-0.3-0.2-0.5-0.5-0.5H83   c-0.2-1.7-1.4-3.3-3.3-4.2L75,53.5v-0.7c0-0.3-0.2-0.5-0.5-0.5S74,52.6,74,52.8v0.7l-4.6,2.2c-1.9,0.9-3.1,2.5-3.3,4.2h-1.7v-3h0.5   c0.3,0,0.5-0.2,0.5-0.5v-3c0-0.3-0.2-0.5-0.5-0.5h-0.5v-6h0.5c0.3,0,0.5-0.2,0.5-0.5v-3c0-0.3-0.2-0.5-0.5-0.5h-1.5v-4h0.5   c0.3,0,0.5-0.2,0.5-0.5v-2c0-0.3-0.2-0.5-0.5-0.5h-0.5v-2h0.5c0.3,0,0.5-0.2,0.5-0.5v-2c0-0.3-0.2-0.5-0.5-0.5h-0.5v-1   c0-0.9-0.6-1.7-1.5-1.9v-0.6c0-0.3-0.2-0.5-0.5-0.5s-0.5,0.2-0.5,0.5v0.6c-0.9,0.2-1.5,1-1.5,1.9v1h-0.5c-0.3,0-0.5,0.2-0.5,0.5v2   c0,0.3,0.2,0.5,0.5,0.5h0.5v2h-0.5c-0.3,0-0.5,0.2-0.5,0.5v2c0,0.3,0.2,0.5,0.5,0.5h0.5v4h-1.5c-0.3,0-0.5,0.2-0.5,0.5v3   c0,0.3,0.2,0.5,0.5,0.5h0.5v6h-0.5c0,0-0.1,0-0.1,0c-0.5-0.9-1.2-1.8-2.2-2.4l-3.8-2.3v-0.9c0-0.3-0.2-0.5-0.5-0.5   s-0.5,0.2-0.5,0.5v0.9L47,50.7c-0.9,0.6-1.7,1.4-2.1,2.3c0,0-0.1,0-0.1,0h-0.5v-6h0.5c0.3,0,0.5-0.2,0.5-0.5v-3   c0-0.3-0.2-0.5-0.5-0.5h-1.5v-4h0.5c0.3,0,0.5-0.2,0.5-0.5v-2c0-0.3-0.2-0.5-0.5-0.5h-0.5v-2h0.5c0.3,0,0.5-0.2,0.5-0.5v-2   c0-0.3-0.2-0.5-0.5-0.5h-0.5v-1c0-0.9-0.6-1.7-1.5-1.9v-0.6c0-0.3-0.2-0.5-0.5-0.5s-0.5,0.2-0.5,0.5v0.6c-0.9,0.2-1.5,1-1.5,1.9v1   h-0.5c-0.3,0-0.5,0.2-0.5,0.5v2c0,0.3,0.2,0.5,0.5,0.5h0.5v2h-0.5c-0.3,0-0.5,0.2-0.5,0.5v2c0,0.3,0.2,0.5,0.5,0.5h0.5v4h-1.5   c-0.3,0-0.5,0.2-0.5,0.5v3c0,0.3,0.2,0.5,0.5,0.5h0.5v6h-0.5c-0.3,0-0.5,0.2-0.5,0.5v3c0,0.3,0.2,0.5,0.5,0.5h0.5v3H36   c-0.2-1.7-1.4-3.3-3.3-4.2L28,53.5v-0.7c0-0.3-0.2-0.5-0.5-0.5S27,52.6,27,52.8v0.7l-4.7,2.3c-1.9,0.9-3.1,2.5-3.3,4.2h-2.2   c-0.3,0-0.5,0.2-0.5,0.5V62h-0.5c-0.3,0-0.5,0.2-0.5,0.5v3c0,0.3,0.2,0.5,0.5,0.5h0.5v16h-0.5c-0.3,0-0.5,0.2-0.5,0.5   s0.2,0.5,0.5,0.5h1h22h4.8h0.2h14.8h0.2h5h22h1c0.3,0,0.5-0.2,0.5-0.5S87.1,82,86.8,82z M86.3,65h-0.5H64.3v-2h21.5h0.5V65z    M66.3,61h2v1h-2V61z M80.3,62h-2v-1h2V62z M77.3,62h-2v-1h2V62z M74.3,62h-2v-1h2V62z M71.3,62h-2v-1h2V62z M85.3,61v1h-1v-1H85.3   z M83.3,62h-2v-1h2V62z M69.8,56.7l4.7-2.3l4.7,2.3c1.6,0.8,2.5,2,2.7,3.3H67C67.2,58.6,68.2,57.4,69.8,56.7z M65.3,61v1h-1v-1   H65.3z M60.3,30c0-0.5,0.4-1,1-1c0,0,0,0,0,0s0,0,0,0c0.5,0,1,0.5,1,1v1h-2V30z M59.3,32h0.5h3h0.5v1h-0.5h-3h-0.5V32z M60.3,34h2   v2h-2V34z M59.3,37h0.5h3h0.5v1h-0.5h-3h-0.5V37z M60.3,39h2v4h-2V39z M58.3,44h1.5h3h1.5v2h-0.5h-5h-0.5V44z M59.3,47h4v6h-4V47z    M58.3,54h0.5h5h0.5v2h-0.5h-5h-0.5v-0.5V54z M44.5,57h0.3h1.5v1h-2v-1H44.5z M58.3,61h-14v-2h14V61z M53.3,58v-1h2v1H53.3z    M52.3,58h-2v-1h2V58z M49.3,58h-2v-1h2V58z M44.3,74.8c0-3.2,1.6-6.2,4.4-8l2.6-1.7l2.6,1.7c2.8,1.7,4.4,4.7,4.4,8V82h-14V74.8z    M54.4,65.9l-2.9-1.8c-0.2-0.1-0.4-0.1-0.5,0L48.1,66c-1.7,1.1-3,2.6-3.8,4.4V62h14v8.3C57.5,68.5,56.2,67,54.4,65.9z M58.3,58h-2   v-1h1.5h0.5V58z M47.6,51.5l3.7-2.3l3.7,2.3c1.4,0.9,2.3,2.3,2.3,4V56h-12v-0.5C45.3,53.9,46.1,52.4,47.6,51.5z M40.3,30   c0-0.5,0.4-1,1-1c0,0,0,0,0,0s0,0,0,0c0.5,0,1,0.5,1,1v1h-2V30z M39.3,32h0.5h3h0.5v1h-0.5h-3h-0.5V32z M40.3,34h2v2h-2V34z    M39.3,37h0.5h3h0.5v1h-0.5h-3h-0.5V37z M40.3,39h2v4h-2V39z M38.3,44h1.5h3h1.5v2h-0.5h-5h-0.5V44z M39.3,47h4v6h-4V47z M38.3,54   h0.5h5h0.5v1.5V56h-0.5h-5h-0.5V54z M38.3,61v1h-1v-1H38.3z M36.3,62h-2v-1h2V62z M19.3,61h2v1h-2V61z M22.3,61h2v1h-2V61z    M25.3,61h2v1h-2V61z M28.3,61h2v1h-2V61z M31.3,61h2v1h-2V61z M22.8,56.7l4.7-2.3l4.7,2.3c1.6,0.8,2.6,2,2.8,3.3H20   C20.2,58.7,21.2,57.4,22.8,56.7z M17.3,61h1v1h-1V61z M16.3,63h0.5h21.5v2H16.8h-0.5V63z M17.3,66h21v16h-5v-6.6   c0-2.5-1.2-4.7-3.3-6l-1.9-1.2c-0.2-0.1-0.4-0.1-0.5,0l-1.9,1.2c-2.1,1.3-3.3,3.6-3.3,6V82h-5V66z M32.3,82h-9v-6.5   c0-2.1,1.1-4,2.8-5.2l1.7-1.1l1.6,1c1.8,1.1,2.9,3.1,2.9,5.2V82z M39.3,65.5v-3v-2V57h4v1.5v3v13.3V82h-4V65.5z M59.3,74.8V61.5v-3   V57h4v3.5v2v3V82h-4V74.8z M79.3,82h-9v-6.5c0-2.1,1.1-4,2.8-5.2l1.7-1.1l1.6,1c1.8,1.1,2.9,3.1,2.9,5.2V82z M80.3,82v-6.6   c0-2.5-1.2-4.7-3.3-6l-1.9-1.2c-0.2-0.1-0.4-0.1-0.5,0l-1.9,1.2c-2.1,1.3-3.3,3.6-3.3,6V82h-5V66h21v16H80.3z" class="color594454 svgShape"></path><path fill="#66ccff" d="M34.8 79h2c.3 0 .5-.2.5-.5v-1.6c0-.6-.3-1.2-.8-1.5l-.4-.2c-.2-.1-.4-.1-.5 0l-.4.3c-.5.3-.8.9-.8 1.5v1.6C34.3 78.8 34.5 79 34.8 79zM35.3 76.9c0-.3.1-.5.4-.7l.1-.1.1.1c.2.2.4.4.4.7V78h-1V76.9zM22.5 70.3c.8 0 1.5-.7 1.5-1.5s-.7-1.5-1.5-1.5S21 68 21 68.8 21.7 70.3 22.5 70.3zM22.5 68.3c.3 0 .5.2.5.5s-.2.5-.5.5S22 69.1 22 68.8 22.2 68.3 22.5 68.3zM32.5 70.3c.8 0 1.5-.7 1.5-1.5s-.7-1.5-1.5-1.5c-.8 0-1.5.7-1.5 1.5S31.7 70.3 32.5 70.3zM32.5 68.3c.3 0 .5.2.5.5s-.2.5-.5.5S32 69.1 32 68.8 32.2 68.3 32.5 68.3zM67.5 75.3l-.4-.2c-.2-.1-.4-.1-.5 0l-.4.3c-.5.3-.8.9-.8 1.5v1.6c0 .3.2.5.5.5h2c.3 0 .5-.2.5-.5v-1.6C68.3 76.2 68 75.6 67.5 75.3zM67.3 78h-1v-1.1c0-.3.1-.5.4-.7l.1-.1.1.1c.2.2.4.4.4.7V78zM83.5 75.3l-.4-.2c-.2-.1-.4-.1-.5 0l-.4.3c-.5.3-.8.9-.8 1.5v1.6c0 .3.2.5.5.5h2c.3 0 .5-.2.5-.5v-1.6C84.3 76.2 84 75.6 83.5 75.3zM83.3 78h-1v-1.1c0-.3.1-.5.4-.7l.1-.1.1.1c.2.2.4.4.4.7V78zM69.5 67.3c-.8 0-1.5.7-1.5 1.5s.7 1.5 1.5 1.5 1.5-.7 1.5-1.5S70.3 67.3 69.5 67.3zM69.5 69.3c-.3 0-.5-.2-.5-.5s.2-.5.5-.5.5.2.5.5S69.8 69.3 69.5 69.3zM79.5 67.3c-.8 0-1.5.7-1.5 1.5s.7 1.5 1.5 1.5 1.5-.7 1.5-1.5S80.3 67.3 79.5 67.3zM79.5 69.3c-.3 0-.5-.2-.5-.5s.2-.5.5-.5.5.2.5.5S79.8 69.3 79.5 69.3z" class="color594454 svgShape"></path></svg></g></svg>