<svg id="SvgjsSvg1144" width="288" height="288" xmlns="http://www.w3.org/2000/svg" version="1.1" xmlns:xlink="http://www.w3.org/1999/xlink" xmlns:svgjs="http://svgjs.com/svgjs"><defs id="SvgjsDefs1145"></defs><g id="SvgjsG1146" transform="matrix(1,0,0,1,0,0)"><svg xmlns="http://www.w3.org/2000/svg" enable-background="new 0 0 100 100" viewBox="0 0 100 100" width="288" height="288"><symbol id="a" viewBox="0 -24 360 24"><rect width="360" height="24" y="-24" fill="#66ccff" fill-opacity="0" class="color010101 svgShape"></rect><rect width="40" height="16" x="312" y="-21" fill="none" opacity=".9"></rect><path fill="#ffffff" d="M266-19l8.8,10.9C274.5-7.8,271.1-5,266-5s-8.5-2.8-8.8-3.1L266-19L266-19L266-19L266-19L266-19z" opacity=".9" class="colorfff svgShape"></path><rect width="16" height="16" x="258" y="-20" fill="none"></rect><polygon fill="#ffffff" points="277 -19 291 -19 291 -5" opacity=".9" class="colorfff svgShape"></polygon><rect width="16" height="16" x="276" y="-20" fill="none"></rect><rect width="16" height="16" x="296" y="-20" fill="none"></rect><path fill="#ffffff" d="M306-6v1h-3v-1h-3v-13h9v13H306z" opacity=".9" class="colorfff svgShape"></path></symbol><path fill="#66ccff" d="M74.4 63.3c1.1 0 2-.9 2-2s-.9-2-2-2-2 .9-2 2S73.3 63.3 74.4 63.3zM74.4 60.3c.6 0 1 .4 1 1s-.4 1-1 1-1-.4-1-1S73.8 60.3 74.4 60.3zM26.4 63.3c1.1 0 2-.9 2-2s-.9-2-2-2-2 .9-2 2S25.3 63.3 26.4 63.3zM26.4 60.3c.6 0 1 .4 1 1s-.4 1-1 1-1-.4-1-1S25.8 60.3 26.4 60.3zM27.8 74.3h-3c-.3 0-.5.2-.5.5v2c0 .3.2.5.5.5h3c.3 0 .5-.2.5-.5v-2C28.3 74.6 28.1 74.3 27.8 74.3zM27.3 76.3h-2v-1h2V76.3zM28.8 65.3h-1-3-1c-.3 0-.5.2-.5.5s.2.5.5.5h.5v5.5c0 .3.2.5.5.5h3c.3 0 .5-.2.5-.5v-5.5h.5c.3 0 .5-.2.5-.5S29.1 65.3 28.8 65.3zM27.3 71.3h-2v-5h2V71.3zM75.8 74.3h-3c-.3 0-.5.2-.5.5v2c0 .3.2.5.5.5h3c.3 0 .5-.2.5-.5v-2C76.3 74.6 76.1 74.3 75.8 74.3zM75.3 76.3h-2v-1h2V76.3zM76.8 65.3h-1-3-1c-.3 0-.5.2-.5.5s.2.5.5.5h.5v5.5c0 .3.2.5.5.5h3c.3 0 .5-.2.5-.5v-5.5h.5c.3 0 .5-.2.5-.5S77.1 65.3 76.8 65.3zM75.3 71.3h-2v-5h2V71.3z" class="color594454 svgShape"></path><path fill="#66ccff" d="M80.7,79.3h-1.4V48.8c0-0.3-0.2-0.5-0.5-0.5h-0.5v-3.2l0.1-0.1c0.6-0.7,0.8-1.7,0.7-2.6   c-0.1-0.9-0.6-1.8-1.3-2.3l-4.4-3.5v-0.3c0.3-0.2,0.6-0.5,0.6-0.9c0-0.6-0.5-1.1-1.1-1.1c-0.6,0-1.1,0.5-1.1,1.1   c0,0.4,0.2,0.8,0.6,0.9v0.3L68,40.1c-0.7,0.6-1.2,1.4-1.3,2.3c-0.1,0.9,0.1,1.8,0.7,2.5v2.5h-0.5c-0.3,0-0.5,0.2-0.5,0.5v0.5h-6.2   l-1.8-2.7v-3.6c0,0,0,0,0,0l2-3c0.1-0.2,0.1-0.4,0-0.5c-0.1-0.2-0.3-0.3-0.4-0.3h-1.6v-1.2c0,0,0,0,0,0l0.1-0.1   c0.9-1.2,1.2-2.7,0.9-4.1c-0.3-1.4-1.2-2.6-2.5-3.3l-3.4-1.8v-2c0-0.3-0.2-0.5-0.5-0.5h-0.5v-1c0-1.1-0.9-2-2-2c-1.1,0-2,0.9-2,2v1   h-0.5c-0.3,0-0.5,0.2-0.5,0.5v2c0,0,0,0,0,0.1L44,29.6c-1.4,0.8-2.3,2.2-2.6,3.6c-0.2,1.3,0.1,2.5,0.9,3.6v1.5h-1.4   c-0.2,0-0.4,0.1-0.4,0.3c-0.1,0.2-0.1,0.4,0,0.5l1.8,2.7v3.8l-1.7,2.6h-6.3v-0.5c0-0.3-0.2-0.5-0.5-0.5h-0.5v-2.2l0.1-0.1   c0.6-0.7,0.8-1.7,0.7-2.6c-0.1-0.9-0.6-1.8-1.3-2.3l-4.4-3.5v-0.3c0.3-0.2,0.6-0.5,0.6-0.9c0-0.6-0.5-1.1-1.1-1.1   c-0.6,0-1.1,0.5-1.1,1.1c0,0.4,0.2,0.8,0.6,0.9v0.3L23,40.1c-0.7,0.6-1.2,1.4-1.3,2.3c-0.1,0.9,0.1,1.8,0.7,2.5v3.5h-0.5   c-0.3,0-0.5,0.2-0.5,0.5v30.5h-1.5c-0.3,0-0.5,0.2-0.5,0.5s0.2,0.5,0.5,0.5h2h8h0.5h1h3.1h2.3h4.1h2.3h4.1h6h4.1h2.4h4.1h2.4h2h2   h0.1h8.4h1.9c0.3,0,0.5-0.2,0.5-0.5S81,79.3,80.7,79.3z M67.6,42.5c0.1-0.7,0.4-1.3,0.9-1.7l4.3-3.4l4.3,3.4c0.5,0.4,0.9,1,0.9,1.7   c0.1,0.7-0.1,1.3-0.5,1.8h-9.5C67.7,43.8,67.6,43.2,67.6,42.5z M68.3,45.3h9v3h-4h-3v-0.5c0-0.3-0.2-0.5-0.5-0.5h-1.5V45.3z    M66.3,66.3h-2.4v-4h2.4V66.3z M63.9,67.3h2.4v3h-2.4V67.3z M66.3,61.3h-2.4v-3h2.4V61.3z M66.8,57.3h-0.5h-2.4h-0.5h-3.1h-0.5   h-2.4h-0.6h-3h-0.5h-6h-0.5h-3.1h-0.5h-2.3h-0.5h-3.1h-0.5h-2.3h-0.5h-3.6h-1v-2h42v2h-0.9H66.8z M57.4,62.3h2.4v4h-2.4V62.3z    M59.8,61.3h-2.4v-3h2.4V61.3z M57.4,67.3h2.4v3h-2.4V67.3z M47.3,62.3h6v4h-6V62.3z M53.3,61.3h-6v-3h6V61.3z M47.3,67.3h6v3h-6   V67.3z M40.8,62.3h2.3v4h-2.3V62.3z M43.2,61.3h-2.3v-3h2.3V61.3z M40.8,67.3h2.3v3h-2.3V67.3z M36.7,61.3h-2.3v-3h2.3V61.3z    M34.4,62.3h2.3v4h-2.3V62.3z M34.4,67.3h2.3v3h-2.3V67.3z M71.8,54.3h-43h-0.7l2-2h0.7h3h0.1h12.9h7h13h0h3h0.9l2,2H71.8z    M31.3,48.3h2v3h-2V48.3z M43.3,42.3h2.1l-0.1,3h-2V42.3z M48.4,45.4C48.4,45.4,48.3,45.3,48.4,45.4l-2.1,0l0.1-3h8.1l-0.1,3h-2.1   c0,0-0.1,0-0.1,0l-1.7-1c-0.2-0.1-0.3-0.1-0.5,0L48.4,45.4z M54.3,48.3v-1.5c0-0.2-0.1-0.3-0.3-0.4l-0.1-0.1h0.7l1.3,2h-1.4H54.3z    M55.5,42.3h1.8v3h-1.9L55.5,42.3z M46.2,41.3l-1.3-2H56l-1.3,2H46.2z M46.7,46.3l-0.1,0.1c-0.2,0.1-0.3,0.3-0.3,0.4v1.5h-0.2h-1.3   l1.3-2H46.7z M47.3,47.1l3-1.7l3,1.7v4.2h-6V47.1z M67.3,48.3h2v3h-2V48.3z M66.3,51.3h-12v-2h0.3h5.3h6.4V51.3z M57.2,48.3l-1.3-2   h1.7l1.4,2H57.2z M57.6,41.3h-1.7l1.3-2h0.6H59L57.6,41.3z M49.3,24.3c0-0.5,0.5-1,1-1c0.5,0,1,0.4,1,1v1h-2V24.3z M48.3,26.3h4v1   h-4V26.3z M42.4,33.4c0.2-1.2,1-2.3,2.1-2.9l4.1-2.2h3.5l4.1,2.2c1,0.6,1.8,1.5,2,2.6c0.2,1.1,0,2.2-0.7,3.2h-5.3v-1.1   c0-0.9-0.4-1.6-1.2-2.1l-0.6-0.4c-0.2-0.1-0.4-0.1-0.5,0l-0.6,0.4c-0.7,0.5-1.1,1.2-1.1,2.1v1.1h-5.2   C42.5,35.4,42.2,34.4,42.4,33.4z M51.3,36.3h-2v-1.1c0-0.5,0.3-1,0.7-1.3l0.3-0.2l0.3,0.2c0.4,0.3,0.7,0.7,0.7,1.3V36.3z    M43.3,37.3h14v1h-14V37.3z M42.8,39.3h0.8l1.3,2h-1.8l-1.3-2H42.8z M43.1,46.3h1.8l-1.3,2h-1.8L43.1,46.3z M34.4,49.3h6.5h5.2h0.2   v2H34.4V49.3z M22.6,42.5c0.1-0.7,0.4-1.3,0.9-1.7l4.3-3.4l4.3,3.4c0.5,0.4,0.9,1,0.9,1.7c0.1,0.7-0.1,1.3-0.5,1.8h-9.5   C22.7,43.8,22.6,43.2,22.6,42.5z M23.3,45.3h9v2h-1.5c-0.3,0-0.5,0.2-0.5,0.5v0.5h-3h-4V45.3z M29.8,79.3h-7.5v-30h0.5h4.5h3v2   h-0.4c-0.1,0-0.3,0.1-0.4,0.1l-3,3c-0.1,0.1-0.2,0.4-0.1,0.5s0.3,0.3,0.5,0.3h1.4v2.5c0,0.3,0.2,0.5,0.5,0.5h1.5v21H29.8z    M31.3,79.3v-21h2.1v3.5v5v4v8.5H31.3z M34.4,79.3v-8h2.3v8H34.4z M37.7,79.3v-8.5c0,0,0,0,0,0s0,0,0,0v-4c0,0,0,0,0,0s0,0,0,0v-5   c0,0,0,0,0,0s0,0,0,0v-3.5h2.1v21H37.7z M40.8,79.3v-8h2.3v8H40.8z M44.2,79.3V66.8c0,0,0,0,0,0s0,0,0,0v-8.5h2.1v21H44.2z    M47.3,79.3v-8h6v8H47.3z M54.3,79.3v-21h2.1v21H54.3z M57.4,79.3v-8h2.4v8H57.4z M60.8,79.3v-21h2.1v21H60.8z M63.9,79.3v-8h2.4v8   H63.9z M68.3,79.3h-1v-8.5v-4v-5v-3.5h2.1v21H68.3z M70.4,79.3v-21h1.4c0.3,0,0.5-0.2,0.5-0.5v-2.5h1.6c0.2,0,0.4-0.1,0.5-0.3   s0-0.4-0.1-0.5l-3-3c-0.1-0.1-0.2-0.1-0.4-0.1h-0.6v-2h3h4.5h0.5v30H70.4z" class="color594454 svgShape"></path></svg></g></svg>