<svg id="SvgjsSvg1191" width="288" height="288" xmlns="http://www.w3.org/2000/svg" version="1.1" xmlns:xlink="http://www.w3.org/1999/xlink" xmlns:svgjs="http://svgjs.com/svgjs"><defs id="SvgjsDefs1192"></defs><g id="SvgjsG1193" transform="matrix(1,0,0,1,0,0)"><svg xmlns="http://www.w3.org/2000/svg" enable-background="new 0 0 64 64" viewBox="0 0 64 64" width="288" height="288"><polygon fill="#66ccff" points="33.501 2 33.501 2 33.502 2" class="color8d7e8a svgShape"></polygon><polygon fill="#66ccff" points="31.102 2 31.103 2 31.104 2" class="color8d7e8a svgShape"></polygon><polygon fill="#66ccff" points="35.901 2 35.901 2 35.902 2" class="color8d7e8a svgShape"></polygon><polygon fill="#66ccff" points="33.501 2 33.501 2 33.502 2" class="color8d7e8a svgShape"></polygon><polygon fill="#66ccff" points="31.102 2 31.103 2 31.104 2" class="color8d7e8a svgShape"></polygon><polygon fill="#66ccff" points="35.901 2 35.901 2 35.902 2" class="color8d7e8a svgShape"></polygon><polygon fill="#66ccff" points="33.501 2 33.501 2 33.502 2" class="color8d7e8a svgShape"></polygon><polygon fill="#66ccff" points="31.102 2 31.103 2 31.104 2" class="color8d7e8a svgShape"></polygon><polygon fill="#66ccff" points="35.901 2 35.901 2 35.902 2" class="color8d7e8a svgShape"></polygon><polygon fill="#66ccff" points="34.65 2 34.651 2 34.651 2" class="color8d7e8a svgShape"></polygon><polygon fill="#66ccff" points="32.251 2 32.252 2 32.253 2" class="color8d7e8a svgShape"></polygon><polygon fill="#66ccff" points="37.05 2 37.051 2 37.051 2" class="color8d7e8a svgShape"></polygon><polygon fill="#7b6876" points="33.501 2 33.501 2 33.502 2" class="color7b6876 svgShape"></polygon><polygon fill="#7b6876" points="31.102 2 31.103 2 31.104 2" class="color7b6876 svgShape"></polygon><polygon fill="#7b6876" points="35.901 2 35.901 2 35.902 2" class="color7b6876 svgShape"></polygon><path fill="#9e919c" d="m 19.271,7.199 4.686,2.953 c 0.577,0.333 1.225,0.421 1.828,0.301 C 25.502,10.4 25.221,10.305 24.957,10.152 L 20.271,7.199 C 19.912,6.935 19.462,6.911 19.157,7.136 c 0.037,0.021 0.077,0.036 0.114,0.063 z" class="color9e919c svgShape"></path><polygon fill="#2e3192" points="32.501 2 32.501 2 32.502 2" class="color2e3192 svgShape"></polygon><polygon fill="#2e3192" points="30.102 2 30.103 2 30.104 2" class="color2e3192 svgShape"></polygon><polygon fill="#2e3192" points="34.901 2 34.901 2 34.902 2" class="color2e3192 svgShape"></polygon><path fill="#f0eeef" d="m 45.5,62 2,0 0,-2 c 0,1.105 -0.895,2 -2,2 z" class="colorf0eeef svgShape"></path><path fill="#66ccff" d="M 35.900391 1.5 C 34.962391 1.5 34.199219 2.2612187 34.199219 3.1992188 L 34.199219 5 C 34.199219 5.276 34.425172 5.5 34.701172 5.5 C 34.977172 5.5 35.201172 5.276 35.201172 5 L 35.201172 3.1992188 C 35.201172 2.8132187 35.515344 2.5 35.902344 2.5 C 36.287344 2.5 36.599609 2.8132186 36.599609 3.1992188 L 36.572266 12.835938 C 36.572266 12.883551 36.582589 12.920655 36.583984 12.966797 C 35.846511 12.820173 35.101138 12.718452 34.353516 12.640625 C 34.274303 12.613949 34.190509 12.599653 34.103516 12.615234 L 34.101562 12.615234 C 32.888078 12.501917 31.667237 12.470848 30.451172 12.550781 C 29.965715 12.582748 29.482851 12.632775 29 12.695312 L 29 12 C 29 11.724 28.776 11.5 28.5 11.5 C 28.224 11.5 28 11.724 28 12 L 28 12.849609 C 25.4714 13.288895 23.013279 14.14637 20.759766 15.373047 L 19.347656 8.2167969 C 19.275656 7.8727969 19.317984 7.6114844 19.458984 7.5214844 C 19.581984 7.4384844 19.801906 7.4750938 20.003906 7.6210938 L 24.707031 10.585938 C 26.056031 11.360938 27.793094 11.022875 28.746094 9.796875 C 28.951094 9.532875 29.095922 9.2213906 29.169922 8.9003906 L 30.392578 3.3046875 C 30.399578 3.2696875 30.404297 3.2342188 30.404297 3.1992188 C 30.404297 2.8132187 30.716562 2.5 31.101562 2.5 C 31.486563 2.5 31.800781 2.8132186 31.800781 3.1992188 L 31.800781 5 C 31.800781 5.276 32.022828 5.5 32.298828 5.5 C 32.574828 5.5 32.798828 5.276 32.798828 5 L 32.798828 3.2011719 C 32.798828 2.2641719 32.037562 1.5019531 31.101562 1.5019531 C 30.183563 1.5019531 29.432344 2.2335312 29.402344 3.1445312 L 28.271484 8.4101562 L 28.201172 8.6484375 C 28.154172 8.8524375 28.068078 9.0375937 27.955078 9.1835938 C 27.306078 10.017594 26.123656 10.248469 25.222656 9.7304688 L 20.566406 6.796875 C 20.054406 6.421875 19.392922 6.3756406 18.919922 6.6816406 C 18.677922 6.8366406 18.139187 7.3150156 18.367188 8.4160156 L 19.892578 16.146484 C 20.934732 21.425979 22.205954 23.812603 27 24.074219 L 27 31.5 L 17.5 31.5 C 17.224 31.5 17 31.724 17 32 L 17 61.5 L 14.5 61.5 C 14.224 61.5 14 61.724 14 62 C 14 62.276 14.224 62.5 14.5 62.5 L 17.5 62.5 L 49.5 62.5 L 52.5 62.5 C 52.776 62.5 53 62.276 53 62 C 53 61.724 52.776 61.5 52.5 61.5 L 50 61.5 L 50 32 C 50 31.724 49.776 31.5 49.5 31.5 L 30 31.5 L 30 24.033203 L 30.570312 23.996094 C 30.774655 23.979553 30.975322 23.941889 31.177734 23.914062 C 31.194993 23.914684 31.211181 23.919622 31.228516 23.919922 L 31.236328 23.919922 C 31.30555 23.919922 31.371683 23.904281 31.431641 23.878906 C 32.731987 23.668751 34.012451 23.233622 35.392578 22.505859 C 36.936578 21.690859 38.461781 20.5745 39.925781 19.1875 L 40.714844 18.439453 C 41.403844 17.785453 42.342484 17.442563 43.271484 17.476562 L 45.773438 17.703125 C 47.031436 17.804125 47.88225 17.324766 48.28125 16.259766 C 48.45325 15.739766 48.411065 15.182359 48.164062 14.693359 C 47.917063 14.204359 47.495609 13.840922 46.974609 13.669922 L 43.244141 12.439453 C 42.888141 12.323453 42.349625 12.199703 41.765625 12.470703 C 41.733625 12.485703 41.701828 12.504391 41.673828 12.525391 C 40.587828 13.348391 38.727422 14.339609 37.982422 13.974609 C 37.708422 13.837609 37.568359 13.453933 37.568359 12.835938 L 37.599609 3.1992188 C 37.599609 2.2622186 36.837391 1.5 35.900391 1.5 z M 30.5 6.75 C 30.362 6.75 30.25 6.862 30.25 7 C 30.25 7.138 30.362 7.25 30.5 7.25 L 31.5 7.25 C 31.638 7.25 31.75 7.138 31.75 7 C 31.75 6.862 31.638 6.75 31.5 6.75 L 30.5 6.75 z M 34.5 6.75 C 34.362 6.75 34.25 6.862 34.25 7 C 34.25 7.138 34.362 7.25 34.5 7.25 L 35.5 7.25 C 35.638 7.25 35.75 7.138 35.75 7 C 35.75 6.862 35.638 6.75 35.5 6.75 L 34.5 6.75 z M 32.5 8.75 C 32.362 8.75 32.25 8.862 32.25 9 C 32.25 9.138 32.362 9.25 32.5 9.25 L 33.5 9.25 C 33.638 9.25 33.75 9.138 33.75 9 C 33.75 8.862 33.638 8.75 33.5 8.75 L 32.5 8.75 z M 30.5 10.75 C 30.362 10.75 30.25 10.862 30.25 11 C 30.25 11.138 30.362 11.25 30.5 11.25 L 31.5 11.25 C 31.638 11.25 31.75 11.138 31.75 11 C 31.75 10.862 31.638 10.75 31.5 10.75 L 30.5 10.75 z M 34.5 10.75 C 34.362 10.75 34.25 10.862 34.25 11 C 34.25 11.138 34.362 11.25 34.5 11.25 L 35.5 11.25 C 35.638 11.25 35.75 11.138 35.75 11 C 35.75 10.862 35.638 10.75 35.5 10.75 L 34.5 10.75 z M 42.574219 13.306641 C 42.689969 13.315016 42.8085 13.346672 42.9375 13.388672 L 46.667969 14.617188 C 46.933969 14.704185 47.150344 14.892578 47.277344 15.142578 C 47.403344 15.393578 47.42475 15.677781 47.34375 15.925781 C 47.18075 16.356781 46.873281 16.791031 45.863281 16.707031 L 43.34375 16.478516 C 42.14475 16.435516 40.91625 16.874891 40.03125 17.712891 L 39.242188 18.460938 C 37.843187 19.784938 36.393687 20.847141 34.929688 21.619141 C 33.604905 22.318048 32.387678 22.726527 31.158203 22.910156 C 30.23671 22.84795 29.5 22.07454 29.5 21.140625 C 29.5 20.831625 29.580422 20.529719 29.732422 20.261719 C 29.868422 20.021719 29.784922 19.715125 29.544922 19.578125 C 29.305922 19.445125 28.999328 19.527578 28.861328 19.767578 C 28.624328 20.184578 28.498047 20.658625 28.498047 21.140625 C 28.498047 21.889174 28.802026 22.573975 29.291016 23.076172 L 29.123047 23.085938 C 28.994047 23.093937 28.865328 23.097656 28.736328 23.097656 L 27.935547 23.097656 C 23.242015 23.097656 22.038216 21.487239 20.994141 16.5 L 28.5 16.5 C 28.569 16.5 28.6355 16.486249 28.695312 16.460938 C 28.87475 16.385 29 16.207 29 16 L 29 13.708984 C 29.382573 13.657121 29.766365 13.623135 30.150391 13.589844 L 30.570312 15.478516 C 30.743312 16.082516 31.297422 16.483 31.982422 16.5 L 32.025391 16.5 C 32.697391 16.5 33.256844 16.123047 33.464844 15.498047 L 33.853516 13.960938 L 34.123047 15.361328 C 34.289047 16.028328 34.862781 16.485 35.550781 16.5 L 35.582031 16.5 C 36.254031 16.5 36.830344 16.068672 37.027344 15.388672 L 37.195312 14.619141 C 37.298928 14.71676 37.411141 14.803739 37.542969 14.869141 C 38.058362 15.123965 38.706192 15.063015 39.355469 14.873047 C 39.952952 15.4254 40.718238 15.75 41.53125 15.75 C 41.94725 15.75 42.357 15.669719 42.75 15.511719 C 42.826 15.479719 42.881434 15.411078 42.898438 15.330078 C 42.916438 15.249078 42.893937 15.165469 42.835938 15.105469 C 42.415275 14.669347 42.116821 14.136228 41.947266 13.552734 C 42.034603 13.491137 42.184208 13.393238 42.232422 13.357422 C 42.345422 13.311922 42.458469 13.298266 42.574219 13.306641 z M 32.089844 13.503906 C 32.369986 13.50555 32.649479 13.526989 32.929688 13.539062 L 32.507812 15.216797 C 32.434812 15.433797 32.241859 15.515953 32.005859 15.501953 C 31.824859 15.497953 31.592064 15.415422 31.539062 15.232422 L 31.162109 13.53125 C 31.47124 13.520236 31.780014 13.502088 32.089844 13.503906 z M 34.820312 13.697266 C 35.323828 13.761215 35.82429 13.842113 36.322266 13.939453 L 36.058594 15.140625 C 35.959594 15.478625 35.674312 15.509 35.570312 15.5 C 35.480312 15.498 35.179609 15.465484 35.099609 15.146484 L 34.820312 13.697266 z M 41.525391 13.841797 C 41.683635 14.319277 41.907149 14.769065 42.220703 15.160156 C 41.415322 15.371345 40.567902 15.172674 39.910156 14.679688 C 40.517211 14.434869 41.090268 14.118974 41.525391 13.841797 z M 28 13.863281 L 28 15.5 L 22.75 15.5 C 24.42599 14.746046 26.191838 14.191754 28 13.863281 z M 28 24.099609 L 28.734375 24.099609 L 29 24.099609 L 29 31.5 L 28 31.5 L 28 24.099609 z M 18 32.5 L 49 32.5 L 49 61.5 L 48 61.5 L 48 60 L 48 50 L 48 34 C 48 33.724 47.776 33.5 47.5 33.5 L 19.5 33.5 C 19.224 33.5 19 33.724 19 34 L 19 61.5 L 18 61.5 L 18 32.5 z M 20 34.5 L 27 34.5 L 27 54.5 L 26.5 54.5 C 26.224 54.5 26 54.724 26 55 L 26 61.5 L 20 61.5 L 20 34.5 z M 28 34.5 L 29 34.5 L 29 54.5 L 28 54.5 L 28 34.5 z M 30 34.5 L 47 34.5 L 47 48.013672 C 46.580816 47.696236 46.065424 47.5 45.5 47.5 L 35.5 47.5 C 34.121 47.5 33 48.621 33 50 L 33 60 C 33 60.565424 33.196236 61.080816 33.513672 61.5 L 31 61.5 L 31 55 C 31 54.724 30.776 54.5 30.5 54.5 L 30 54.5 L 30 34.5 z M 35.5 48.5 L 45.5 48.5 C 46.327 48.5 47 49.173 47 50 L 47 60 C 47 60.827 46.327 61.5 45.5 61.5 L 35.5 61.5 C 34.673 61.5 34 60.827 34 60 L 34 50 C 34 49.173 34.673 48.5 35.5 48.5 z M 27 55.5 L 27.5 55.5 L 29.5 55.5 L 30 55.5 L 30 61.5 L 27 61.5 L 27 55.5 z " class="color594454 svgShape"></path><path fill="#66ccff" d="M 34.7,5.5 C 34.424,5.5 34.2,5.276 34.2,5 l 0,-1.8 C 34.2,2.814 33.887,2.5 33.501,2.5 33.114,2.5 32.8,2.814 32.8,3.2 l 0,1.8 c 0,0.276 -0.224,0.5 -0.5,0.5 -0.276,0 -0.5,-0.224 -0.5,-0.5 l 0,-1.8 c 0,-0.938 0.764,-1.7 1.702,-1.7 0.937,0 1.698,0.763 1.698,1.7 l 0,1.8 c 0,0.276 -0.223,0.5 -0.5,0.5 z" class="color594454 svgShape"></path></svg></g></svg>