<svg id="SvgjsSvg1124" width="288" height="288" xmlns="http://www.w3.org/2000/svg" version="1.1" xmlns:xlink="http://www.w3.org/1999/xlink" xmlns:svgjs="http://svgjs.com/svgjs"><defs id="SvgjsDefs1125"></defs><g id="SvgjsG1126" transform="matrix(1,0,0,1,0,0)"><svg xmlns="http://www.w3.org/2000/svg" enable-background="new 0 0 100 100" viewBox="0 0 100 100" width="288" height="288"><symbol id="a" viewBox="0 -24 360 24"><rect width="360" height="24" y="-24" fill="#010101" fill-opacity="0" class="color010101 svgShape"></rect><rect width="40" height="16" x="312" y="-21" fill="none" opacity=".9"></rect><path fill="#ffffff" d="M266.006-18.992l8.802,10.907C274.467-7.828,271.081-5,266-5s-8.467-2.828-8.808-3.084l8.802-10.907L266-19      l0,0l0,0L266.006-18.992z" opacity=".9" class="colorfff svgShape"></path><rect width="16" height="16" x="258" y="-20" fill="none"></rect><polygon fill="#ffffff" points="277 -18.997 291 -18.997 291 -4.997" opacity=".9" class="colorfff svgShape"></polygon><rect width="16" height="16" x="276" y="-20" fill="none"></rect><g fill="#000000" class="color000 svgShape"><rect width="16" height="16" x="296" y="-20" fill="none"></rect><path fill="#ffffff" d="M306-6v1h-3v-1h-3v-13h9v13H306z" opacity=".9" class="colorfff svgShape"></path></g></symbol><path fill="#000000" d="m 49.999981,10.181641 c -0.276,0 -0.5,0.224 -0.5,0.5 l 0,5.529297 -1.988281,0 -0.01172,-1.503907 c -0.002,-0.274 -0.226,-0.496094 -0.5,-0.496093 l -0.0039,0 c -0.276,0.002 -0.498094,0.227906 -0.496094,0.503906 l 0.01563,2 0,2.466797 -0.515625,0 c -0.276,0 -0.5,0.224 -0.5,0.5 0,0.276 0.224,0.5 0.5,0.5 l 0.318359,0 -1.894531,6 -0.923828,0 0,-1.5 c 0,-0.276 -0.224,-0.5 -0.5,-0.5 -0.276,0 -0.5,0.224 -0.5,0.5 l 0,2 0,2 0,3.5 c 0,0.02 0.0097,0.03569 0.01172,0.05469 l -1.988281,6.294922 c -0.005,0.017 9.3e-5,0.03473 -0.0039,0.05273 -0.007,0.033 -0.01953,0.06266 -0.01953,0.09766 l 0,2 0,1 0,25.5 -22,0 0,-0.970703 0.52734,0 c 0.276,0 0.5,-0.224001 0.5,-0.5 0,-0.276 -0.224,-0.5 -0.5,-0.5 l -0.65234,0 -2.667969,-8 0.308589,0 c 0.276,0 0.5,-0.224 0.5,-0.5 0,-0.276002 -0.224,-0.5 -0.5,-0.5 l -1.001949,0 -0.5,0 0,-2.5 0,-2 c 0,-0.276002 -0.224,-0.5 -0.5,-0.5 -0.276,0 -0.5,0.223998 -0.5,0.5 l 0,1.5 -5.0000005,0 0,-1.5 c 0,-0.276002 -0.224,-0.5 -0.5,-0.5 -0.276,0 -0.5,0.223998 -0.5,0.5 l 0,2 0,2.5 -0.50977,0 -0.98242,0 c -0.276,0 -0.5,0.223998 -0.5,0.5 0,0.276 0.224,0.499998 0.5,0.5 l 0.29102,0 -2.67188,8 -0.63086,0 c -0.276,0 -0.5,0.223999 -0.5,0.5 0,0.275998 0.224,0.5 0.5,0.5 l 0.49024,0 0,2.470703 0,1 0,25.5 -1.5,0 c -0.276,0 -0.5,0.224 -0.5,0.5 0,0.276 0.224,0.5 0.5,0.5 l 2,0 13.9999995,0 23,0 18,0 23,0 14,0 2,0 c 0.275999,0 0.5,-0.224 0.5,-0.5 0,-0.276 -0.223,-0.5 -0.5,-0.5 l -1.5,0 0,-25.5 0,-1 0,-2.470703 0.5,0 c 0.275999,0 0.5,-0.224001 0.5,-0.5 0,-0.276 -0.224001,-0.5 -0.5,-0.5 l -0.63086,0 -2.667969,-8 0.308594,0 c 0.276,0 0.5,-0.224 0.5,-0.5 0,-0.276002 -0.224,-0.5 -0.5,-0.5 l -1.001953,0 -0.5,0 0,-2.5 0,-2 c 0,-0.276002 -0.224,-0.5 -0.5,-0.5 -0.275999,0 -0.5,0.223998 -0.5,0.5 l 0,1.5 -5,0 0,-1.5 c 0,-0.276002 -0.223999,-0.5 -0.5,-0.5 -0.275999,0 -0.5,0.223998 -0.5,0.5 l 0,2 0,2.5 -0.509766,0 -0.984375,0 c -0.275999,0 -0.5,0.223998 -0.5,0.5 0,0.276 0.224001,0.499998 0.5,0.5 l 0.291016,0 -2.662109,7.970703 -0.640625,0 c -0.276,0 -0.5,0.224 -0.5,0.5 0,0.276 0.224,0.5 0.5,0.5 l 0.5,0 0,1 -22,0 0,-25.5 0,-1 0,-2 c 0,-0.035 -0.01253,-0.06466 -0.01953,-0.09766 -0.003,-0.018 0.0021,-0.03573 -0.0039,-0.05273 L 57.49024,32.236331 c 0.002,-0.019 0.0098,-0.03569 0.0098,-0.05469 l 0,-3.5 0,-2 0,-2 c 0,-0.276 -0.224,-0.5 -0.5,-0.5 -0.276,0 -0.5,0.224 -0.5,0.5 l 0,1.5 -0.921875,0 -1.894531,-6 0.316406,0 c 0.276,0 0.5,-0.224 0.5,-0.5 0,-0.276 -0.224,-0.5 -0.5,-0.5 l -0.484375,0 0,-2.470703 0,-0.002 0,-0.002 -0.01563,-2 c -0.002,-0.274 -0.226,-0.496094 -0.5,-0.496093 l -0.0039,0 c -0.276,0.002 -0.498094,0.227906 -0.496094,0.503906 l 0.01172,1.496094 -2.011719,0 0,-5.529297 c 0,-0.276 -0.224,-0.5 -0.5,-0.5 z m -2.484375,7.029297 0.984375,0 0,1.970703 -0.984375,0 0,-1.970703 z m 1.984375,0 1,0 0,1.970703 -1,0 0,-1.970703 z m 2,0 1.015625,0 0,1.970703 -1.015625,0 0,-1.970703 z m -4.142578,3 5.287109,0 5.673828,17.970703 -2.816406,0 0,-2.5 c 0,-0.276 -0.224,-0.5 -0.5,-0.5 l -1.734375,0 -2.794922,-7.669922 c -0.071,-0.196 -0.258797,-0.328078 -0.466797,-0.330078 l -0.0039,0 c -0.207,0 -0.392797,0.127312 -0.466797,0.320312 l -2.960937,7.679688 -1.572266,0 c -0.276,0 -0.5,0.224 -0.5,0.5 l 0,2.5 -2.816406,0 5.671875,-17.970703 z m -3.857422,6.970703 0.609375,0 -0.609375,1.923828 0,-0.423828 0,-1.5 z m 12.392578,0 0.607422,0 0,1.5 0,0.423828 -0.607422,-1.923828 z m -5.904297,1.921875 2.458985,6.748046 c 0.001,0.003 0.0039,0.0029 0.0059,0.0059 0.033,0.086 0.09011,0.154937 0.162109,0.210937 0.016,0.012 0.02987,0.0232 0.04687,0.0332 0.076,0.046 0.158906,0.07813 0.253906,0.07813 l 1.583984,0 0,2.496093 0,0.0039 c 0,0.276 0.224001,0.5 0.5,0.5 l 1,0 2,0 0.5,0 0,0.0918 c -0.156999,-0.056 -0.323999,-0.0918 -0.5,-0.0918 -0.384999,0 -0.734,0.150624 -1,0.390624 -0.265999,-0.24 -0.615,-0.390624 -1,-0.390624 -0.826999,0 -1.5,0.673 -1.5,1.5 l 0,1 c 0,0.276 0.224001,0.5 0.5,0.5 0.276,0 0.5,-0.224002 0.5,-0.5 l 0,-1 c 0,-0.275 0.225001,-0.5 0.5,-0.5 0.275,0 0.5,0.225 0.5,0.5 l 0,1 c 0,0.276 0.224,0.5 0.5,0.5 0.276001,0 0.5,-0.224002 0.5,-0.5 l 0,-1 c 0,-0.275 0.225001,-0.5 0.5,-0.5 0.275,0 0.5,0.225 0.5,0.5 l 0,1 0,5.5 -5.5,0 -6,0 -5.5,0 0,-5.5 0,-1 c 0,-0.275 0.225,-0.5 0.5,-0.5 0.275001,0 0.5,0.225 0.5,0.5 l 0,1 c 0,0.276 0.224001,0.5 0.5,0.5 0.276,0 0.5,-0.224002 0.5,-0.5 l 0,-1 c 0,-0.275 0.225,-0.5 0.5,-0.5 0.275001,0 0.5,0.225 0.5,0.5 l 0,1 c 0,0.276 0.224001,0.5 0.5,0.5 0.276,0 0.5,-0.224002 0.5,-0.5 l 0,-1 c 0,-0.820333 -0.662632,-1.487317 -1.480468,-1.498047 l 0.980468,0 c 0.276,0 0.5,-0.224 0.5,-0.5 l 0,-2.5 1.417969,0 c 0.003,0 0.0048,-0.002 0.0078,-0.002 0.025,-0.001 0.04827,-0.01063 0.07227,-0.01563 0.174,-0.029 0.318811,-0.138828 0.382812,-0.298828 10e-4,-0.002 9.53e-4,-0.0039 0.002,-0.0059 l 2.605469,-6.755859 z m -8.488281,10.078125 0.490234,0 c -0.172206,0.0014 -0.336309,0.03494 -0.490234,0.08984 l 0,-0.08984 z m 0.519531,0 1.960938,0 c -0.377072,0.0051 -0.719088,0.152839 -0.980469,0.388671 -0.261381,-0.235832 -0.603397,-0.38357 -0.980469,-0.388671 z m 7.980469,0 c -1.930001,0 -3.5,1.57 -3.5,3.5 0,1.93 1.571,3.5 3.5,3.5 1.93,0 3.5,-1.57 3.5,-3.5 0,-1.93 -1.57,-3.5 -3.5,-3.5 z m 0,1 c 1.379,0 2.5,1.121 2.5,2.5 0,1.379 -1.121,2.5 -2.5,2.5 -1.379,0 -2.5,-1.121 -2.5,-2.5 0,-1.379 1.121,-2.5 2.5,-2.5 z m 0,1 c -0.276,0 -0.5,0.224 -0.5,0.5 l 0,1 c 0.001,0.276 0.224,0.5 0.5,0.5 0.009,0 0.01834,-0.0039 0.02734,-0.0039 0.009,0 0.01639,0.0039 0.02539,0.0039 l 1.447266,0 c 0.275999,0 0.5,-0.224 0.5,-0.5 0,-0.276 -0.224001,-0.5 -0.5,-0.5 l -1,0 0,-0.5 c 0,-0.276 -0.224001,-0.5 -0.5,-0.5 z m -8.5,7 5,0 0,1.5 c 0,0.189 0.108344,0.362265 0.277344,0.447265 l 1.722656,0.861328 0,1.691407 c 0,0.276 0.224,0.5 0.5,0.5 l 0.5,0 0,2 c -0.276,0 -0.5,0.224 -0.5,0.5 0,0.276 0.224,0.5 0.5,0.5 l 1,0 c 0.276,0 0.5,-0.224 0.5,-0.5 0,-0.276 -0.224,-0.5 -0.5,-0.5 l 0,-2 0.5,0 c 0.276,0 0.5,-0.224 0.5,-0.5 l 0,-1.691407 1.724609,-0.861328 c 0.169,-0.085 0.275391,-0.258265 0.275391,-0.447265 l 0,-1.5 5,0 0,12 -4,0 0,-2 c 0,-1.103 -0.897001,-2 -2,-2 -1.103,0 -2,0.897 -2,2 l 0,2 -1,0 0,-2 c 0,-1.103 -0.897001,-2 -2,-2 -1.103,0 -2,0.897 -2,2 l 0,2 -4,0 0,-12 z m 6,0.002 5,0 0,1.189453 -1.722656,0.861328 c -0.169,0.085 -0.277344,0.258266 -0.277344,0.447266 l 0,1.5 -1,0 0,-1.5 c 0,-0.189 -0.106391,-0.362266 -0.275391,-0.447266 l -1.724609,-0.861328 0,-1.189453 z m -38.9843805,6.027344 0.98438,0 0,1.970703 -0.98438,0 0,-1.970703 z m 1.9843805,0 1,0 0,1.970703 -1,0 0,-1.970703 z m 2,0 1.01562,0 0,1.970703 -1.01562,0 0,-1.970703 z m 74.007812,0 0.986329,0 0,1.970703 -0.986329,0 0,-1.970703 z m 1.986329,0 1,0 0,1.970703 -1,0 0,-1.970703 z m 1.998047,0 1.015624,0 0,1.970703 -1.015624,0 0,-1.970703 z m -42.992188,2.970656 c 0.552,0 1,0.448 1,1 l 0,2.5 0,2 0,2.5 -2,0 0,-7 c 0,-0.552 0.447999,-1 1,-1 z m 5,0 c 0.552,0 1,0.448 1,1 l 0,7 -2,0 0,-2.5 0,-2 0,-2.5 c 0,-0.552 0.447999,-1 1,-1 z m -45.1328105,0.0293 7.2890605,0 2.66602,8 -1.10352,0 -1.99414,0 -2.85352,-2.88086 c -0.094,-0.095 -0.22151,-0.148437 -0.35351,-0.148437 l -0.002,0 c -0.133,0 -0.26052,0.05248 -0.35352,0.146484 l -2.8691405,2.882813 -1.57422,0 -1.52343,0 2.67187,-8 z m 77.9921855,0 7.289063,0 2.666015,8 -1.3125,0 -1.785156,0 -2.853516,-2.88086 c -0.094,-0.095 -0.221515,-0.148437 -0.353515,-0.148437 l -0.002,0 c -0.132998,0 -0.260516,0.05248 -0.353515,0.146484 l -2.867188,2.882813 -1.638672,0 c -0.047,-0.014 -0.09548,-0.0293 -0.146484,-0.0293 l -1.302735,0 2.660156,-7.970703 z m -43.859375,3.970703 4,0 0,4 -0.5,0 c -0.276,0 -0.5,0.224 -0.5,0.5 l 0,2 c 0,0.276 0.224,0.5 0.5,0.5 l 10,0 c 0.276,0 0.5,-0.224 0.5,-0.5 l 0,-2 c 0,-0.276 -0.224,-0.5 -0.5,-0.5 l -0.5,0 0,-4 4,0 0,6.5 0,5 0,7.5 -4,0 0,-7.5 c 0,-1.379 -1.121,-2.5 -2.5,-2.5 -0.821,0 -1.544,0.403625 -2,1.015625 -0.456,-0.612 -1.179,-1.015625 -2,-1.015625 -1.379,0 -2.5,1.121 -2.5,2.5 l 0,7.5 -4,0 0,-7.5 0,-5 0,-6.5 z m 8,0 1,0 0,1 -1,0 0,-1 z m 0,2 1,0 0,2 -1,0 0,-2 z m -38.486331,0.210937 2.64649,2.669922 c 0.094,0.095 0.22247,0.148438 0.35546,0.148438 l 2.20313,0 1.28125,0 0,1.0625 c -0.157,-0.056 -0.324,-0.0918 -0.5,-0.0918 -0.385,0 -0.734,0.150625 -1,0.390625 -0.266,-0.24 -0.615,-0.390625 -1,-0.390625 -0.827,0 -1.5,0.673 -1.5,1.5 l 0,1 c 0,0.276 0.224,0.5 0.5,0.5 0.276,0 0.5,-0.224 0.5,-0.5 l 0,-1 c 0,-0.275 0.225,-0.5 0.5,-0.5 0.275,0 0.5,0.225 0.5,0.5 l 0,1 c 0,0.276 0.224,0.5 0.5,0.5 0.276,0 0.5,-0.224 0.5,-0.5 l 0,-1 c 0,-0.275 0.225,-0.5 0.5,-0.5 0.275,0 0.5,0.225 0.5,0.5 l 0,1 0,3 0,22.5 -2.05078,0 0,-3.509766 c 0,-2.481 -2.019,-4.5 -4.5,-4.5 -2.4809995,0 -4.4999995,2.019 -4.4999995,4.5 l 0,3.509766 -1.94922,0 0,-25.5 0,-1 c 0,-0.275 0.225,-0.5 0.5,-0.5 0.275,0 0.5,0.225 0.5,0.5 l 0,1 c 0,0.276 0.224,0.5 0.5,0.5 0.276,0 0.5,-0.224 0.5,-0.5 l 0,-1 c 0,-0.275 0.225,-0.5 0.5,-0.5 0.275,0 0.5,0.225 0.5,0.5 l 0,1 c 0,0.276 0.224,0.5 0.5,0.5 0.276,0 0.5,-0.224 0.5,-0.5 l 0,-1 c 0,-0.827 -0.673,-1.5 -1.5,-1.5 -0.385,0 -0.734,0.150625 -1,0.390625 -0.266,-0.24 -0.615,-0.390625 -1,-0.390625 -0.176,0 -0.343,0.0358 -0.5,0.0918 l 0,-1.0625 1.71875,0 1.78125,0 c 0.133,0 0.26247,-0.05249 0.35547,-0.146485 L 11.01365,63.392581 Z m 77.992189,0 2.646485,2.669922 c 0.094,0.095 0.22247,0.148438 0.355468,0.148438 l 1.992188,0 1.5,0 0,1.0625 c -0.157,-0.056 -0.324,-0.0918 -0.5,-0.0918 -0.385,0 -0.734,0.150625 -1,0.390625 -0.266,-0.24 -0.615,-0.390625 -1,-0.390625 -0.827,0 -1.5,0.673 -1.5,1.5 l 0,1 c 0,0.276 0.224,0.5 0.5,0.5 0.276,0 0.5,-0.224 0.5,-0.5 l 0,-1 c 0,-0.275 0.225,-0.5 0.5,-0.5 0.275,0 0.5,0.225 0.5,0.5 l 0,1 c 0,0.276 0.224,0.5 0.5,0.5 0.276,0 0.5,-0.224 0.5,-0.5 l 0,-1 c 0,-0.275 0.225,-0.5 0.5,-0.5 0.275,0 0.5,0.225 0.5,0.5 l 0,1 0,25.5 -2.050781,0 0,-3.509766 c 0,-2.481 -2.019,-4.5 -4.5,-4.5 -2.481,0 -4.5,2.019 -4.5,4.5 l 0,3.509766 -1.947266,0 0,-22.5 0,-3 0,-1 c 0,-0.275 0.225,-0.5 0.5,-0.5 0.275,0 0.5,0.225 0.5,0.5 l 0,1 c 0,0.276 0.224,0.5 0.5,0.5 0.276,0 0.5,-0.224 0.5,-0.5 l 0,-1 c 0,-0.275 0.225,-0.5 0.5,-0.5 0.275,0 0.5,0.225 0.5,0.5 l 0,1 c 0,0.276 0.224,0.5 0.5,0.5 0.276,0 0.5,-0.224 0.5,-0.5 l 0,-1 c 0,-0.827 -0.673,-1.5 -1.5,-1.5 -0.385,0 -0.734,0.150625 -1,0.390625 -0.266,-0.24 -0.615,-0.390625 -1,-0.390625 -0.176,0 -0.343,0.0358 -0.5,0.0918 l 0,-1.0625 3.492188,0 c 0.133,0 0.260515,-0.05249 0.353515,-0.146485 l 2.658203,-2.671875 z m -78.005859,1.78906 c -0.827,0 -1.4999995,0.673 -1.4999995,1.5 l 0,3 c 0,0.276 0.224,0.5 0.5,0.5 l 1.9999995,0 c 0.276,0 0.5,-0.224 0.5,-0.5 l 0,-3 c 0,-0.827 -0.673,-1.5 -1.5,-1.5 z m 78,0 c -0.827,0 -1.5,0.673 -1.5,1.5 l 0,3 c 0,0.276 0.224,0.5 0.5,0.5 l 2,0 c 0.276,0 0.5,-0.224 0.5,-0.5 l 0,-3 c 0,-0.827 -0.673,-1.5 -1.5,-1.5 z m -78,1 c 0.275,0 0.5,0.225 0.5,0.5 l 0,2.5 -1,0 0,-2.5 c 0,-0.275 0.225,-0.5 0.5,-0.5 z m 34.5,0 0.5,0 0.5,0 0,1 -1,0 0,-1 z m 2,0 1,0 0,1 -1,0 0,-1 z m 2,0 1,0 0,1 -1,0 0,-1 z m 2,0 1,0 0,1 -1,0 0,-1 z m 2,0 0.5,0 0.5,0 0,1 -1,0 0,-1 z m 35.5,0 c 0.275,0 0.5,0.225 0.5,0.5 l 0,2.5 -1,0 0,-2.5 c 0,-0.275 0.225,-0.5 0.5,-0.5 z m -70.5,2 22,0 0,4 -22,0 0,-2.5 0,-1 0,-0.5 z m 41,0 22,0 0,0.5 0,1 0,2.5 -22,0 0,-4 z m -11.5,3 c 0.827,0 1.5,0.673 1.5,1.5 l 0,7.5 -3,0 0,-7.5 c 0,-0.827 0.673,-1.5 1.5,-1.5 z m 4,0 c 0.827,0 1.5,0.673 1.5,1.5 l 0,7.5 -3,0 0,-7.5 c 0,-0.827 0.673,-1.5 1.5,-1.5 z m -41,1.990234 c -2.0529995,0 -3.7686395,1.388484 -4.3066395,3.271484 -0.032,0.057 -0.0516,0.121454 -0.0586,0.189453 -0.08,0.335 -0.13281,0.679063 -0.13281,1.039063 l 0,7 c -0.001,0.275 0.22204,0.5 0.49804,0.5 l 7.9999995,0 c 0.276,0 0.5,-0.224 0.5,-0.5 l 0,-7 c 0,-0.363 -0.0538,-0.712781 -0.13476,-1.050781 -0.008,-0.064 -0.0247,-0.121781 -0.0547,-0.175782 -0.537,-1.884 -2.25655,-3.273437 -4.31055,-3.273437 z m 78.001953,0 c -2.053,0 -3.770594,1.388484 -4.308594,3.271484 -0.032,0.057 -0.04964,0.121454 -0.05664,0.189453 -0.08,0.335 -0.134766,0.679063 -0.134766,1.039063 l 0,7 c 0,0.276 0.224,0.5 0.5,0.5 l 8,0 c 0.276,0 0.5,-0.224 0.5,-0.5 l 0,-7 c 0,-0.363 -0.05377,-0.710828 -0.134765,-1.048828 -0.009,-0.065 -0.02764,-0.123734 -0.05664,-0.177735 -0.537,-1.884 -2.254594,-3.273437 -4.308594,-3.273437 z m -70.501953,0.0098 22,0 0,8 -1,0 0,-4.25 c 0,-0.965 -0.785,-1.75 -1.75,-1.75 -0.49,0 -0.932,0.204296 -1.25,0.529297 -0.318,-0.326 -0.76,-0.529297 -1.25,-0.529297 -0.965,0 -1.75,0.785 -1.75,1.75 l 0,4.25 -1,0 0,-4.25 c 0,-0.965 -0.785,-1.75 -1.75,-1.75 -0.49,0 -0.932,0.204296 -1.25,0.529297 -0.318,-0.326 -0.76,-0.529297 -1.25,-0.529297 -0.965,0 -1.75,0.785 -1.75,1.75 l 0,4.25 -1,0 0,-4.25 c 0,-0.965 -0.785,-1.75 -1.75,-1.75 -0.49,0 -0.932,0.204296 -1.25,0.529297 -0.318,-0.326 -0.76,-0.529297 -1.25,-0.529297 -0.965,0 -1.75,0.785 -1.75,1.75 l 0,4.25 -1,0 0,-8 z m 41,0 22,0 0,8 -1,0 0,-4.25 c 0,-0.965 -0.785,-1.75 -1.75,-1.75 -0.49,0 -0.932,0.204296 -1.25,0.529297 -0.318,-0.326 -0.759999,-0.529297 -1.25,-0.529297 -0.965,0 -1.75,0.785 -1.75,1.75 l 0,4.25 -1,0 0,-4.25 c 0,-0.965 -0.785,-1.75 -1.75,-1.75 -0.49,0 -0.932,0.204296 -1.25,0.529297 -0.318,-0.326 -0.759999,-0.529297 -1.25,-0.529297 -0.965,0 -1.75,0.785 -1.75,1.75 l 0,4.25 -1,0 0,-4.25 c 0,-0.965 -0.785,-1.75 -1.75,-1.75 -0.49,0 -0.932,0.204296 -1.25,0.529297 -0.318,-0.326 -0.76,-0.529297 -1.25,-0.529297 -0.965,0 -1.75,0.785 -1.75,1.75 l 0,4.25 -1,0 0,-8 z m -48.5,0.990234 c 1.395,0 2.59425,0.825766 3.15625,2.009766 l -6.3105495,0 c 0.562,-1.185 1.7593,-2.009766 3.1542995,-2.009766 z m 78,0 c 1.395,0 2.59425,0.825766 3.15625,2.009766 l -6.310547,0 c 0.562,-1.185 1.759297,-2.009766 3.154297,-2.009766 z m -67.75,2.009766 c 0.413,0 0.75,0.337 0.75,0.75 l 0,4.25 -1.5,0 0,-4.25 c 0,-0.413 0.337,-0.75 0.75,-0.75 z m 2.5,0 c 0.413,0 0.75,0.337 0.75,0.75 l 0,4.25 -1.5,0 0,-4.25 c 0,-0.413 0.337,-0.75 0.75,-0.75 z m 4.5,0 c 0.413,0 0.75,0.337 0.75,0.75 l 0,4.25 -1.5,0 0,-4.25 c 0,-0.413 0.337,-0.75 0.75,-0.75 z m 2.5,0 c 0.413,0 0.75,0.337 0.75,0.75 l 0,4.25 -1.5,0 0,-4.25 c 0,-0.413 0.337,-0.75 0.75,-0.75 z m 4.5,0 c 0.413,0 0.75,0.337 0.75,0.75 l 0,4.25 -1.5,0 0,-4.25 c 0,-0.413 0.337,-0.75 0.75,-0.75 z m 2.5,0 c 0.413,0 0.75,0.337 0.75,0.75 l 0,4.25 -1.5,0 0,-4.25 c 0,-0.413 0.337,-0.75 0.75,-0.75 z m 24.5,0 c 0.413,0 0.75,0.337 0.75,0.75 l 0,4.25 -1.5,0 0,-4.25 c 0,-0.413 0.337,-0.75 0.75,-0.75 z m 2.5,0 c 0.413,0 0.75,0.337 0.75,0.75 l 0,4.25 -1.5,0 0,-4.25 c 0,-0.413 0.337,-0.75 0.75,-0.75 z m 4.5,0 c 0.413,0 0.75,0.337 0.75,0.75 l 0,4.25 -1.5,0 0,-4.25 c 0,-0.413 0.337,-0.75 0.75,-0.75 z m 2.5,0 c 0.413,0 0.75,0.337 0.75,0.75 l 0,4.25 -1.5,0 0,-4.25 c 0,-0.413 0.337,-0.75 0.75,-0.75 z m 4.5,0 c 0.413,0 0.75,0.337 0.75,0.75 l 0,4.25 -1.5,0 0,-4.25 c 0,-0.413 0.337,-0.75 0.75,-0.75 z m 2.5,0 c 0.413,0 0.75,0.337 0.75,0.75 l 0,4.25 -1.5,0 0,-4.25 c 0,-0.413 0.337,-0.75 0.75,-0.75 z m -71.1992195,1 0.94922,0 0,1 -1,0 0,-0.509766 c 0,-0.168 0.0278,-0.329234 0.0508,-0.490234 z m 1.94922,0 0.9999995,0 0,1 -0.9999995,0 0,-1 z m 1.9999995,0 1,0 0,1 -1,0 0,-1 z m 2,0 0.95117,0 c 0.024,0.161 0.0488,0.322234 0.0488,0.490234 l 0,0.509766 -1,0 0,-1 z m 72.050781,0 0.949219,0 0,1 -1,0 0,-0.509766 c 0,-0.168 0.02778,-0.329234 0.05078,-0.490234 z m 1.949219,0 1,0 0,1 -1,0 0,-1 z m 2,0 1,0 0,1 -1,0 0,-1 z m 2,0 0.951172,0 c 0.023,0.161 0.04883,0.323234 0.04883,0.490234 l 0,0.509766 -1,0 0,-1 z m -83.9999995,2 1,0 0,4.990234 -1,0 0,-4.990234 z m 2,0 0.9999995,0 0,4.990234 -0.9999995,0 0,-4.990234 z m 1.9999995,0 1,0 0,4.990234 -1,0 0,-4.990234 z m 2,0 1,0 0,4.990234 -1,0 0,-4.990234 z m 72,0 1,0 0,4.990234 -1,0 0,-4.990234 z m 2,0 1,0 0,4.990234 -1,0 0,-4.990234 z m 2,0 1,0 0,4.990234 -1,0 0,-4.990234 z m 2,0 1,0 0,4.990234 -1,0 0,-4.990234 z m -49.998047,2 4.498047,0 4,0 4,0 4.5,0 0,14 -3.050781,0 0,-6.509766 c 0,-3.032 -2.468,-5.5 -5.5,-5.5 -3.032,0 -5.5,2.468 -5.5,5.5 l 0,6.509766 -2.947266,0 0,-14 z m -23.001953,1 1.5,0 2.5,0 2.5,0 2,0 2.5,0 2.5,0 2,0 2.5,0 2.5,0 1.5,0 0,13 -1,0 0,-4.00586 c 0,-1.654 -1.346,-3 -3,-3 -1.654,0 -3,1.346 -3,3 l 0,4.00586 -1,0 0,-4.00586 c 0,-1.654 -1.346,-3 -3,-3 -1.654,0 -3,1.346 -3,3 l 0,4.00586 -1,0 0,-4.00586 c 0,-1.654 -1.346,-3 -3,-3 -1.654,0 -3,1.346 -3,3 l 0,4.00586 -1,0 0,-13 z m 41,0 1.5,0 2.5,0 2.5,0 2,0 2.5,0 2.5,0 2,0 2.5,0 2.5,0 1.5,0 0,13 -1,0 0,-4.00586 c 0,-1.654 -1.346,-3 -3,-3 -1.654,0 -3,1.346 -3,3 l 0,4.00586 -1,0 0,-4.00586 c 0,-1.654 -1.346,-3 -3,-3 -1.654,0 -3,1.346 -3,3 l 0,4.00586 -1,0 0,-4.00586 c 0,-1.654 -1.346,-3 -3,-3 -1.654,0 -3,1.346 -3,3 l 0,4.00586 -1,0 0,-13 z m -39.5,0.990234 c -0.276,0 -0.5,0.224 -0.5,0.5 l 0,2.5 c 0,0.276 0.224,0.5 0.5,0.5 l 2.5,0 2.5,0 c 0.276,0 0.5,-0.224 0.5,-0.5 l 0,-2.5 c 0,-0.276 -0.224,-0.5 -0.5,-0.5 l -2.5,0 -2.5,0 z m 7,0 c -0.276,0 -0.5,0.224 -0.5,0.5 l 0,2.5 c 0,0.276 0.224,0.5 0.5,0.5 l 2.5,0 2.5,0 c 0.276,0 0.5,-0.224 0.5,-0.5 l 0,-2.5 c 0,-0.276 -0.224,-0.5 -0.5,-0.5 l -2.5,0 -2.5,0 z m 7,0 c -0.276,0 -0.5,0.224 -0.5,0.5 l 0,2.5 c 0,0.276 0.224,0.5 0.5,0.5 l 2.5,0 2.5,0 c 0.276,0 0.5,-0.224 0.5,-0.5 l 0,-2.5 c 0,-0.276 -0.224,-0.5 -0.5,-0.5 l -2.5,0 -2.5,0 z m 27,0 c -0.276,0 -0.5,0.224 -0.5,0.5 l 0,2.5 c 0,0.276 0.224,0.5 0.5,0.5 l 2.5,0 2.5,0 c 0.276001,0 0.5,-0.224 0.5,-0.5 l 0,-2.5 c 0,-0.276 -0.223999,-0.5 -0.5,-0.5 l -2.5,0 -2.5,0 z m 7,0 c -0.276,0 -0.5,0.224 -0.5,0.5 l 0,2.5 c 0,0.276 0.224,0.5 0.5,0.5 l 2.5,0 2.5,0 c 0.276001,0 0.5,-0.224 0.5,-0.5 l 0,-2.5 c 0,-0.276 -0.223999,-0.5 -0.5,-0.5 l -2.5,0 -2.5,0 z m 7,0 c -0.276,0 -0.5,0.224 -0.5,0.5 l 0,2.5 c 0,0.276 0.224,0.5 0.5,0.5 l 2.5,0 2.5,0 c 0.276001,0 0.5,-0.224 0.5,-0.5 l 0,-2.5 c 0,-0.276 -0.223999,-0.5 -0.5,-0.5 l -2.5,0 -2.5,0 z m -54.5,1 1.5,0 0,1.5 -1.5,0 0,-1.5 z m 2.5,0 1.5,0 0,1.5 -1.5,0 0,-1.5 z m 4.5,0 1.5,0 0,1.5 -1.5,0 0,-1.5 z m 2.5,0 1.5,0 0,1.5 -1.5,0 0,-1.5 z m 4.5,0 1.5,0 0,1.5 -1.5,0 0,-1.5 z m 2.5,0 1.5,0 0,1.5 -1.5,0 0,-1.5 z m 12.949219,0 c 2.481,0 4.5,2.019 4.5,4.5 l 0,6.5 -9,0 0,-6.5 c 0,-2.481 2.019,-4.5 4.5,-4.5 z m 11.550781,0 1.5,0 0,1.5 -1.5,0 0,-1.5 z m 2.5,0 1.5,0 0,1.5 -1.5,0 0,-1.5 z m 4.5,0 1.5,0 0,1.5 -1.5,0 0,-1.5 z m 2.5,0 1.5,0 0,1.5 -1.5,0 0,-1.5 z m 4.5,0 1.5,0 0,1.5 -1.5,0 0,-1.5 z m 2.5,0 1.5,0 0,1.5 -1.5,0 0,-1.5 z m -67.05078,4 c 1.93,0 3.5,1.57 3.5,3.5 l 0,3.5 -6.9999995,0 0,-3.5 c 0,-1.93 1.57,-3.5 3.4999995,-3.5 z m 77.999999,0 c 1.93,0 3.5,1.57 3.5,3.5 l 0,3.5 -7,0 0,-3.5 c 0,-1.93 1.57,-3.5 3.5,-3.5 z M 22.49998,89.175781 c 1.103,0 2,0.897 2,2 l 0,4.00586 -4,0 0,-4.00586 c 0,-1.103 0.897,-2 2,-2 z m 7,0 c 1.103,0 2,0.897 2,2 l 0,4.00586 -4,0 0,-4.00586 c 0,-1.103 0.897,-2 2,-2 z m 7,0 c 1.103,0 2,0.897 2,2 l 0,4.00586 -4,0 0,-4.00586 c 0,-1.103 0.897,-2 2,-2 z m 27,0 c 1.103,0 2,0.897 2,2 l 0,4.00586 -4,0 0,-4.00586 c 0,-1.103 0.897,-2 2,-2 z m 7,0 c 1.103,0 2,0.897 2,2 l 0,4.00586 -4,0 0,-4.00586 c 0,-1.103 0.897,-2 2,-2 z m 7,0 c 1.103,0 2,0.897 2,2 l 0,4.00586 -4,0 0,-4.00586 c 0,-1.103 0.897,-2 2,-2 z" class="color594555 svgShape"></path></svg></g></svg>