<svg id="SvgjsSvg1144" width="288" height="288" xmlns="http://www.w3.org/2000/svg" version="1.1" xmlns:xlink="http://www.w3.org/1999/xlink" xmlns:svgjs="http://svgjs.com/svgjs"><defs id="SvgjsDefs1145"></defs><g id="SvgjsG1146" transform="matrix(1,0,0,1,0,0)"><svg xmlns="http://www.w3.org/2000/svg" enable-background="new 0 0 100 100" viewBox="0 0 100 100" width="288" height="288"><symbol id="a" viewBox="0 -24 360 24"><rect width="360" height="24" y="-24" fill="#010101" fill-opacity="0" class="color010101 svgShape"></rect><rect width="40" height="16" x="312" y="-21" fill="none" opacity=".9"></rect><path fill="#ffffff" d="M266-19l8.8,10.9C274.5-7.8,271.1-5,266-5s-8.5-2.8-8.8-3.1L266-19L266-19L266-19L266-19L266-19z" opacity=".9" class="colorfff svgShape"></path><rect width="16" height="16" x="258" y="-20" fill="none"></rect><polygon fill="#ffffff" points="277 -19 291 -19 291 -5" opacity=".9" class="colorfff svgShape"></polygon><rect width="16" height="16" x="276" y="-20" fill="none"></rect><rect width="16" height="16" x="296" y="-20" fill="none"></rect><path fill="#ffffff" d="M306-6v1h-3v-1h-3v-13h9v13H306z" opacity=".9" class="colorfff svgShape"></path></symbol><path fill="#000000" d="M26.2,64.5h-3c-0.3,0-0.5,0.2-0.5,0.5v4c0,0.3,0.2,0.5,0.5,0.5h3c0.3,0,0.5-0.2,0.5-0.5v-4   C26.7,64.7,26.5,64.5,26.2,64.5z M25.7,65.5v1h-2v-1H25.7z M23.7,68.5v-1h2v1H23.7z" class="color594454 svgShape"></path><path fill="#000000" d="M82.2,81.5h-1.5v-9h0.5c0.3,0,0.5-0.2,0.5-0.5s-0.2-0.5-0.5-0.5h-0.5v-8h0.5c0.3,0,0.5-0.2,0.5-0.5   s-0.2-0.5-0.5-0.5h-0.5v-3h0.5c0.3,0,0.5-0.2,0.5-0.5s-0.2-0.5-0.5-0.5h-0.5v-1.9V56v-1c0-0.3-0.2-0.5-0.5-0.5s-0.5,0.2-0.5,0.5   v0.5h-1v-3h0.5c0.3,0,0.5-0.2,0.5-0.5s-0.2-0.5-0.5-0.5h-0.5c0-0.9-0.6-1.7-1.5-1.9c0,0,0,0,0,0V48c0-0.3-0.2-0.5-0.5-0.5   s-0.5,0.2-0.5,0.5v1.6c0,0,0,0,0,0c-0.9,0.2-1.5,1-1.5,1.9h-0.5c-0.3,0-0.5,0.2-0.5,0.5s0.2,0.5,0.5,0.5h0.5v3h-1V55   c0-0.3-0.2-0.5-0.5-0.5s-0.5,0.2-0.5,0.5v1v0.6v1.9h-0.5c-0.3,0-0.5,0.2-0.5,0.5s0.2,0.5,0.5,0.5h0.5v1h-8v-1h0.5   c0.3,0,0.5-0.2,0.5-0.5s-0.2-0.5-0.5-0.5h-0.5v-5h0.5c0.3,0,0.5-0.2,0.5-0.5s-0.2-0.5-0.5-0.5h-0.5c-0.2-1-1-1.8-2-2V49   c0-0.3-0.2-0.5-0.5-0.5s-0.5,0.2-0.5,0.5v1.5h-0.5c-1.2,0-2.2-0.9-2.4-2h1.4c0.3,0,0.5-0.2,0.5-0.5v-2c0-0.3-0.2-0.5-0.5-0.5h-1.5   v-2h0.5c0.3,0,0.5-0.2,0.5-0.5s-0.2-0.5-0.5-0.5h-0.5c-0.4-3.1-2.5-5.6-5.4-6.6v-3.4h0.5c0.3,0,0.5-0.2,0.5-0.5s-0.2-0.5-0.5-0.5   h-0.5c-0.2-1-1-1.8-2-2V26c0-0.3-0.2-0.5-0.5-0.5s-0.5,0.2-0.5,0.5v3.5c-1,0.2-1.8,1-2,2h-0.5c-0.3,0-0.5,0.2-0.5,0.5   s0.2,0.5,0.5,0.5h0.5v3.4c-2.9,1-5,3.5-5.4,6.6h-0.6c-0.3,0-0.5,0.2-0.5,0.5s0.2,0.5,0.5,0.5h0.5v2h-1.5c-0.3,0-0.5,0.2-0.5,0.5v2   c0,0.3,0.2,0.5,0.5,0.5h1.4c-0.2,1.1-1.2,2-2.4,2h-0.5V49c0-0.3-0.2-0.5-0.5-0.5s-0.5,0.2-0.5,0.5v1.5c-1,0.2-1.8,1-2,2h-0.5   c-0.3,0-0.5,0.2-0.5,0.5s0.2,0.5,0.5,0.5h0.5v5h-0.5c-0.3,0-0.5,0.2-0.5,0.5s0.2,0.5,0.5,0.5h0.5v1h-8v-1h0.5   c0.3,0,0.5-0.2,0.5-0.5s-0.2-0.5-0.5-0.5h-0.5v-1.9V56v-1c0-0.3-0.2-0.5-0.5-0.5s-0.5,0.2-0.5,0.5v0.5h-1v-3h0.5   c0.3,0,0.5-0.2,0.5-0.5s-0.2-0.5-0.5-0.5h-0.5c0-0.9-0.6-1.7-1.5-1.9c0,0,0,0,0,0V48c0-0.3-0.2-0.5-0.5-0.5s-0.5,0.2-0.5,0.5v1.6   c0,0,0,0,0,0c-0.9,0.2-1.5,1-1.5,1.9h-0.5c-0.3,0-0.5,0.2-0.5,0.5s0.2,0.5,0.5,0.5h0.5v3h-1V55c0-0.3-0.2-0.5-0.5-0.5   s-0.5,0.2-0.5,0.5v1v0.6v1.9h-0.5c-0.3,0-0.5,0.2-0.5,0.5s0.2,0.5,0.5,0.5h0.5v3h-0.5c-0.3,0-0.5,0.2-0.5,0.5s0.2,0.5,0.5,0.5h0.5   v8h-0.5c-0.3,0-0.5,0.2-0.5,0.5s0.2,0.5,0.5,0.5h0.5v9h-1.5c-0.3,0-0.5,0.2-0.5,0.5s0.2,0.5,0.5,0.5h2h7h9h3h3h3h9h3h3h3h9h7h2   c0.3,0,0.5-0.2,0.5-0.5S82.5,81.5,82.2,81.5z M79.7,71.5h-6V65v-1.5h6V71.5z M76.7,50.5c0.6,0,1,0.4,1,1h-2   C75.7,50.9,76.2,50.5,76.7,50.5z M75.7,52.5h2v3h-2V52.5z M73.7,56.6L73.7,56.6l1.5-0.1c0,0,0,0,0,0h3c0,0,0,0,0,0h1.4v0.1v1.9h-6   V56.6z M79.7,59.5v3h-6V61v-1.5H79.7z M72.7,61.5v1h-0.5c-0.3,0-0.5,0.2-0.5,0.5s0.2,0.5,0.5,0.5h0.5v1h-8v-1h0.5   c0.3,0,0.5-0.2,0.5-0.5s-0.2-0.5-0.5-0.5h-0.5v-1H72.7z M46.7,78.5v-9c0-2.2,1.8-4,4-4s4,1.8,4,4v9v3h-8V78.5z M50.7,64.5   c-1.6,0-3.1,0.8-4,2v-3h1.5h5h1.5v3C53.8,65.3,52.4,64.5,50.7,64.5z M53.2,62.5h-5h-1.5v-2h8v2H53.2z M43.7,55.5h2v2h-2V55.5z    M48.2,55.5h5h1.5v2h-8v-2H48.2z M45.7,48.5h1v4h-1V48.5z M47.7,48.5h6v4h-0.5h-0.5v-1.1c0-1.1-0.9-2-2-2s-2,0.9-2,2v1.1h-0.5h-0.5   V48.5z M55.7,52.5h-1v-4h1V52.5z M51.7,52.5h-2v-1.1c0-0.6,0.4-1,1-1s1,0.4,1,1V52.5z M48.7,53.5h4v1h-4V53.5z M57.7,57.5h-2v-2h2   V57.5z M43.2,58.5h3h9h3h1.5V59c0,0,0,0,0,0.1v0.4h-1.5h-3h-9h-3h-1.5V59v0v-0.5H43.2z M37.7,61v-1.5h3V60c0,0.3,0.2,0.5,0.5,0.5   h1.5v2h-2.5h-2.5V61z M42.7,63.5v2.3c-0.3-0.2-0.6-0.3-1-0.3s-0.7,0.1-1,0.3v-2.3H42.7z M42.7,76.5h-2v-2c0-0.6,0.4-1,1-1   s1,0.4,1,1V76.5z M41.7,72.5c-0.4,0-0.7,0.1-1,0.3v-2.3h2v2.3C42.4,72.6,42.1,72.5,41.7,72.5z M42.7,69.5h-2v-2c0-0.6,0.4-1,1-1   s1,0.4,1,1V69.5z M40.7,77.5h2v4h-2V77.5z M43.7,60.5h2v2h-2V60.5z M55.7,60.5h2v2h-2V60.5z M60.7,76.5h-2v-2c0-0.6,0.4-1,1-1   s1,0.4,1,1V76.5z M59.7,72.5c-0.4,0-0.7,0.1-1,0.3v-2.3h2v2.3C60.4,72.6,60.1,72.5,59.7,72.5z M60.7,69.5h-2v-2c0-0.6,0.4-1,1-1   s1,0.4,1,1V69.5z M58.7,77.5h2v4h-2V77.5z M60.7,65.8c-0.3-0.2-0.6-0.3-1-0.3s-0.7,0.1-1,0.3v-2.3h2V65.8z M58.7,62.5v-2h1.5   c0.3,0,0.5-0.2,0.5-0.5v-0.5h3V61v1.5h-2.5H58.7z M63.7,58.5h-1c0,0,0,0,0-0.1V56c0-0.3-0.2-0.5-0.5-0.5s-0.5,0.2-0.5,0.5v2.4   c0,0,0,0,0,0.1h-1V58c0,0,0,0,0-0.1v-4.4h3V58.5z M63.6,52.5h-2.8c0.2-0.6,0.8-1,1.4-1S63.4,51.9,63.6,52.5z M60.3,51.4   c-0.3,0.3-0.5,0.7-0.6,1.1h-0.5c-0.3,0-0.5,0.2-0.5,0.5s0.2,0.5,0.5,0.5h0.5v4h-1V55c0-0.3-0.2-0.5-0.5-0.5h-3h-1.5v-1h3.5   c0.3,0,0.5-0.2,0.5-0.5s-0.2-0.5-0.5-0.5h-0.5v-4h1.1C58,49.9,59,51,60.3,51.4z M57.7,45.5h-1v-2h1V45.5z M45.7,43.5h2v2h-2V43.5z    M48.7,43.5h4v2h-4V43.5z M53.7,43.5h2v2h-2V43.5z M50.7,30.5c0.7,0,1.2,0.4,1.4,1h-2.8C49.5,30.9,50,30.5,50.7,30.5z M49.2,32.5h3   v3.1c-0.3-0.1-0.7-0.1-1-0.1c0,0,0-0.1,0-0.1V34c0-0.3-0.2-0.5-0.5-0.5s-0.5,0.2-0.5,0.5v1.4c0,0,0,0.1,0,0.1c-0.3,0-0.7,0.1-1,0.1   V32.5z M50.7,36.5c3.5,0,6.4,2.6,6.9,6H43.8C44.3,39.1,47.2,36.5,50.7,36.5z M43.7,43.5h1v2h-1V43.5z M41.7,46.5h18v1h-18V46.5z    M43.7,48.5h1.1v4h-0.5c-0.3,0-0.5,0.2-0.5,0.5s0.2,0.5,0.5,0.5h3.5v1h-1.5h-3c-0.3,0-0.5,0.2-0.5,0.5v2.5h-1v-4h0.5   c0.3,0,0.5-0.2,0.5-0.5s-0.2-0.5-0.5-0.5h-0.5c-0.1-0.4-0.3-0.8-0.6-1.1C42.4,51,43.5,49.9,43.7,48.5z M39.2,51.5   c0.7,0,1.2,0.4,1.4,1h-2.8C38,51.9,38.6,51.5,39.2,51.5z M40.7,53.5V58v0.5h-1c0,0,0,0,0-0.1V56c0-0.3-0.2-0.5-0.5-0.5   s-0.5,0.2-0.5,0.5v2.4c0,0,0,0,0,0.1h-1v-5H40.7z M36.7,61.5v1h-0.5c-0.3,0-0.5,0.2-0.5,0.5s0.2,0.5,0.5,0.5h0.5v1h-8v-1h0.5   c0.3,0,0.5-0.2,0.5-0.5s-0.2-0.5-0.5-0.5h-0.5v-1H36.7z M24.7,50.5c0.6,0,1,0.4,1,1h-2C23.7,50.9,24.1,50.5,24.7,50.5z M23.7,52.5   h2v3h-2V52.5z M21.7,56.6L21.7,56.6l1.4-0.1c0,0,0,0,0,0h3c0,0,0,0,0,0h1.5v0.1v1.9h-6V56.6z M21.7,59.5h6V61v1.5h-6V59.5z    M21.7,63.5h6V65v6.5h-6V63.5z M21.7,72.5h6v9h-6V72.5z M28.7,72.5h0.5c0.3,0,0.5-0.2,0.5-0.5s-0.2-0.5-0.5-0.5h-0.5v-6h8v16h-8   V72.5z M37.7,81.5V65v-1.5h2v4V70v4.5V77v4.5H37.7z M43.7,81.5V77v-2.5V70v-2.5v-4h2v6v9v3H43.7z M55.7,81.5v-3v-9v-6h2v4V70v4.5   V77v4.5H55.7z M61.7,77v-2.5V70v-2.5v-4h2V65v16.5h-2V77z M64.7,65.5h8v6h-0.5c-0.3,0-0.5,0.2-0.5,0.5s0.2,0.5,0.5,0.5h0.5v9h-8   V65.5z M73.7,81.5v-9h6v9H73.7z" class="color594454 svgShape"></path><path fill="#000000" d="M34.2 73.5h-3c-.3 0-.5.2-.5.5v4c0 .3.2.5.5.5h3c.3 0 .5-.2.5-.5v-4C34.7 73.7 34.5 73.5 34.2 73.5zM33.7 74.5v1h-2v-1H33.7zM33.7 77.5h-2v-1h2V77.5zM34.2 66.5h-3c-.3 0-.5.2-.5.5v4c0 .3.2.5.5.5h3c.3 0 .5-.2.5-.5v-4C34.7 66.7 34.5 66.5 34.2 66.5zM33.7 67.5v1h-2v-1H33.7zM33.7 70.5h-2v-1h2V70.5zM26.2 73.5h-3c-.3 0-.5.2-.5.5v4c0 .3.2.5.5.5h3c.3 0 .5-.2.5-.5v-4C26.7 73.7 26.5 73.5 26.2 73.5zM25.7 77.5h-2v-3h2V77.5z" class="color594454 svgShape"></path><circle cx="50.7" cy="44.5" r=".5" fill="#000000" class="color594454 svgShape"></circle><circle cx="24.7" cy="61" r=".5" fill="#000000" class="color594454 svgShape"></circle><path fill="#000000" d="M75.2 69.5h3c.3 0 .5-.2.5-.5v-4c0-.3-.2-.5-.5-.5h-3c-.3 0-.5.2-.5.5v4C74.7 69.3 74.9 69.5 75.2 69.5zM75.7 68.5v-1h2v1H75.7zM77.7 65.5v1h-2v-1H77.7zM70.2 73.5h-3c-.3 0-.5.2-.5.5v4c0 .3.2.5.5.5h3c.3 0 .5-.2.5-.5v-4C70.7 73.7 70.5 73.5 70.2 73.5zM67.7 74.5h2v1h-2V74.5zM67.7 77.5v-1h2v1H67.7zM70.2 66.5h-3c-.3 0-.5.2-.5.5v4c0 .3.2.5.5.5h3c.3 0 .5-.2.5-.5v-4C70.7 66.7 70.5 66.5 70.2 66.5zM67.7 67.5h2v1h-2V67.5zM67.7 70.5v-1h2v1H67.7zM78.2 73.5h-3c-.3 0-.5.2-.5.5v4c0 .3.2.5.5.5h3c.3 0 .5-.2.5-.5v-4C78.7 73.7 78.5 73.5 78.2 73.5zM77.7 77.5h-2v-3h2V77.5z" class="color594454 svgShape"></path><circle cx="76.7" cy="61" r=".5" fill="#000000" class="color594454 svgShape"></circle></svg></g></svg>