<svg id="SvgjsSvg1054" width="288" height="288" xmlns="http://www.w3.org/2000/svg" version="1.1" xmlns:xlink="http://www.w3.org/1999/xlink" xmlns:svgjs="http://svgjs.com/svgjs"><defs id="SvgjsDefs1055"></defs><g id="SvgjsG1056" transform="matrix(1,0,0,1,0,0)"><svg xmlns="http://www.w3.org/2000/svg" width="288" height="288" viewBox="0 0 100 100"><path fill="#66ccff" d="M 46 27 C 45.724 27 45.5 27.224 45.5 27.5 L 45.5 29.050781 C 43.973158 29.27251 42.771864 30.472951 42.550781 32 L 40 32 C 39.724 32 39.5 32.224 39.5 32.5 L 39.5 34 L 34 34 C 33.724 34 33.5 34.224 33.5 34.5 L 33.5 43 L 31 43 C 30.724 43 30.5 43.224 30.5 43.5 L 30.5 46 L 29 46 C 28.724 46 28.5 46.224 28.5 46.5 L 28.5 50 L 26 50 C 25.827 50 25.666219 50.090281 25.574219 50.238281 C 25.484219 50.385281 25.475734 50.569609 25.552734 50.724609 L 28.5 56.619141 L 28.5 67 L 28 67 C 27.724 67 27.5 67.224 27.5 67.5 C 27.5 67.776 27.724 68 28 68 L 28.5 68 L 28.5 74 L 27.064453 74 C 26.879453 74 26.709047 74.102672 26.623047 74.263672 C 26.535047 74.426672 26.545437 74.624344 26.648438 74.777344 L 28.5 77.554688 L 28.5 87 L 28 87 C 27.724 87 27.5 87.224 27.5 87.5 C 27.5 87.776 27.724 88 28 88 L 28.5 88 L 28.5 90 L 24.5 90 C 24.224 90 24 90.224 24 90.5 C 24 90.776 24.224 91 24.5 91 L 31 91 L 41 91 L 61 91 L 71 91 L 75.5 91 C 75.776 91 76 90.776 76 90.5 C 76 90.224 75.776 90 75.5 90 L 71.5 90 L 71.5 88 L 72 88 C 72.276 88 72.5 87.776 72.5 87.5 C 72.5 87.224 72.276 87 72 87 L 71.5 87 L 71.5 77.652344 L 73.416016 74.777344 C 73.518016 74.623344 73.529406 74.426672 73.441406 74.263672 C 73.355406 74.101672 73.185 74 73 74 L 71.5 74 L 71.5 68 L 72 68 C 72.276 68 72.5 67.776 72.5 67.5 C 72.5 67.224 72.276 67 72 67 L 71.5 67 L 71.5 56.617188 L 74.447266 50.722656 C 74.525266 50.567656 74.516781 50.383328 74.425781 50.236328 C 74.333781 50.089328 74.173 50 74 50 L 71.5 50 L 71.5 46.5 C 71.5 46.224 71.276 46 71 46 L 69.5 46 L 69.5 43.5 C 69.5 43.224 69.276 43 69 43 L 66.5 43 L 66.5 34.5 C 66.5 34.224 66.276 34 66 34 L 60.5 34 L 60.5 32.5 C 60.5 32.224 60.276 32 60 32 L 57.449219 32 C 57.439447 31.932527 57.443264 31.861103 57.429688 31.794922 C 57.135915 30.362921 55.959964 29.262211 54.5 29.050781 L 54.5 27.5 C 54.5 27.224 54.276 27 54 27 L 46 27 z M 46.5 28 L 53.5 28 L 53.5 29 L 46.5 29 L 46.5 28 z M 46 30 L 54 30 C 55.207 30 56.219172 30.86 56.451172 32 L 43.550781 32 C 43.782781 30.86 44.793 30 46 30 z M 40.5 33 L 42.5 33 L 57.5 33 L 59.5 33 L 59.5 34 L 40.5 34 L 40.5 33 z M 34.5 35 L 65.5 35 L 65.5 43 L 34.5 43 L 34.5 35 z M 44 37 C 43.724 37 43.5 37.224 43.5 37.5 L 43.5 40.5 C 43.5 40.776 43.724 41 44 41 L 45.5 41 L 45.5 41.5 C 45.5 41.776 45.724 42 46 42 L 54 42 C 54.276 42 54.5 41.776 54.5 41.5 L 54.5 41 L 56 41 C 56.276 41 56.5 40.776 56.5 40.5 L 56.5 37.5 C 56.5 37.224 56.276 37 56 37 L 44 37 z M 40 37.021484 C 38.621 37.021484 37.5 38.142484 37.5 39.521484 C 37.5 40.900484 38.621 42.021484 40 42.021484 C 41.379 42.021484 42.5 40.900484 42.5 39.521484 C 42.5 38.142484 41.379 37.021484 40 37.021484 z M 60 37.021484 C 58.621 37.021484 57.5 38.142484 57.5 39.521484 C 57.5 40.900484 58.621 42.021484 60 42.021484 C 61.379 42.021484 62.5 40.900484 62.5 39.521484 C 62.5 38.142484 61.379 37.021484 60 37.021484 z M 44.5 38 L 55.5 38 L 55.5 40 L 54 40 C 53.724 40 53.5 40.224 53.5 40.5 L 53.5 41 L 46.5 41 L 46.5 40.5 C 46.5 40.224 46.276 40 46 40 L 44.5 40 L 44.5 38 z M 40 38.021484 C 40.827 38.021484 41.5 38.694484 41.5 39.521484 C 41.5 40.348484 40.827 41.021484 40 41.021484 C 39.173 41.021484 38.5 40.348484 38.5 39.521484 C 38.5 38.694484 39.173 38.021484 40 38.021484 z M 60 38.021484 C 60.827 38.021484 61.5 38.694484 61.5 39.521484 C 61.5 40.348484 60.827 41.021484 60 41.021484 C 59.173 41.021484 58.5 40.348484 58.5 39.521484 C 58.5 38.694484 59.173 38.021484 60 38.021484 z M 31.5 44 L 68.5 44 L 68.5 46 L 31.5 46 L 31.5 44 z M 29.5 47 L 70.5 47 L 70.5 50 L 29.5 50 L 29.5 47 z M 26.808594 51 L 73.191406 51 L 72.691406 52 L 27.308594 52 L 26.808594 51 z M 27.808594 53 L 28.5 53 L 28.5 54.382812 L 27.808594 53 z M 29.5 53 L 31.5 53 L 31.5 56 L 29.5 56 L 29.5 53 z M 32.5 53 L 34.5 53 L 34.5 56 L 32.5 56 L 32.5 53 z M 35.5 53 L 37.5 53 L 37.5 56 L 35.5 56 L 35.5 53 z M 38.5 53 L 40.5 53 L 40.5 56 L 38.5 56 L 38.5 53 z M 41.5 53 L 43.5 53 L 43.5 56 L 41.5 56 L 41.5 53 z M 44.5 53 L 46.5 53 L 46.5 56 L 44.5 56 L 44.5 53 z M 47.5 53 L 49.5 53 L 49.5 56 L 47.5 56 L 47.5 53 z M 50.5 53 L 52.5 53 L 52.5 56 L 50.5 56 L 50.5 53 z M 53.5 53 L 55.5 53 L 55.5 56 L 53.5 56 L 53.5 53 z M 56.5 53 L 58.5 53 L 58.5 56 L 56.5 56 L 56.5 53 z M 59.5 53 L 61.5 53 L 61.5 56 L 59.5 56 L 59.5 53 z M 62.5 53 L 64.5 53 L 64.5 56 L 62.5 56 L 62.5 53 z M 65.5 53 L 67.5 53 L 67.5 56 L 65.5 56 L 65.5 53 z M 68.5 53 L 70.5 53 L 70.5 56 L 68.5 56 L 68.5 53 z M 71.5 53 L 72.191406 53 L 71.5 54.382812 L 71.5 53 z M 29.5 57 L 40.5 57 L 40.5 59.5 L 40.5 67 L 39.5 67 L 39.5 63.5 C 39.5 63.224 39.276 63 39 63 L 31 63 C 30.724 63 30.5 63.224 30.5 63.5 L 30.5 67 L 29.5 67 L 29.5 57 z M 41.5 57 L 58.5 57 L 58.5 59 L 51 59 C 50.724 59 50.5 59.224 50.5 59.5 L 50.5 63 L 49.5 63 L 49.5 59.5 C 49.5 59.224 49.276 59 49 59 L 41.5 59 L 41.5 57 z M 59.5 57 L 70.5 57 L 70.5 67 L 69.5 67 L 69.5 63.5 C 69.5 63.224 69.276 63 69 63 L 61 63 C 60.724 63 60.5 63.224 60.5 63.5 L 60.5 67 L 59.5 67 L 59.5 59.5 L 59.5 57 z M 35 58 C 33.897 58 33 58.897 33 60 C 33 61.103 33.897 62 35 62 C 36.103 62 37 61.103 37 60 C 37 58.897 36.103 58 35 58 z M 65 58 C 63.897 58 63 58.897 63 60 C 63 61.103 63.897 62 65 62 C 66.103 62 67 61.103 67 60 C 67 58.897 66.103 58 65 58 z M 35 59 C 35.552 59 36 59.448 36 60 C 36 60.552 35.552 61 35 61 C 34.448 61 34 60.552 34 60 C 34 59.448 34.448 59 35 59 z M 65 59 C 65.552 59 66 59.448 66 60 C 66 60.552 65.552 61 65 61 C 64.448 61 64 60.552 64 60 C 64 59.448 64.448 59 65 59 z M 41.5 60 L 48.5 60 L 48.5 60.166016 C 45.242187 60.831626 42.749083 63.604935 42.523438 67 L 41.5 67 L 41.5 60 z M 51.5 60 L 58.5 60 L 58.5 67 L 57.476562 67 C 57.250917 63.604935 54.757813 60.831626 51.5 60.166016 L 51.5 60 z M 48.5 61.185547 L 48.5 62.234375 C 46.355922 62.847267 44.754905 64.716352 44.544922 67 L 43.523438 67 C 43.741338 64.157315 45.795306 61.827514 48.5 61.185547 z M 51.5 61.185547 C 54.204694 61.827514 56.258662 64.157315 56.476562 67 L 55.455078 67 C 55.245189 64.715839 53.644682 62.846707 51.5 62.234375 L 51.5 61.185547 z M 48.5 63.28125 L 48.5 63.5 C 48.5 63.776 48.724 64 49 64 L 51 64 C 51.276 64 51.5 63.776 51.5 63.5 L 51.5 63.28125 C 53.089814 63.847467 54.262713 65.270219 54.457031 67 L 54 67 C 53.724 67 53.5 67.224 53.5 67.5 C 53.5 67.776 53.724 68 54 68 L 54.5 68 L 54.5 74 L 54 74 C 53.724 74 53.5 74.224 53.5 74.5 C 53.5 74.776 53.724 75 54 75 L 54.5 75 L 54.5 90 L 45.5 90 L 45.5 75 L 46 75 C 46.276 75 46.5 74.776 46.5 74.5 C 46.5 74.224 46.276 74 46 74 L 45.5 74 L 45.5 68 L 46 68 C 46.276 68 46.5 67.776 46.5 67.5 C 46.5 67.224 46.276 67 46 67 L 45.542969 67 C 45.737383 65.270629 46.910648 63.84788 48.5 63.28125 z M 31.5 64 L 33 64 L 33 65 L 31.5 65 L 31.5 64 z M 34 64 L 36 64 L 36 65 L 34 65 L 34 64 z M 37 64 L 38.5 64 L 38.5 65 L 37 65 L 37 64 z M 61.5 64 L 63 64 L 63 65 L 61.5 65 L 61.5 64 z M 64 64 L 66 64 L 66 65 L 64 65 L 64 64 z M 67 64 L 68.5 64 L 68.5 65 L 67 65 L 67 64 z M 31.5 66 L 38.5 66 L 38.5 67 L 31.5 67 L 31.5 66 z M 61.5 66 L 68.5 66 L 68.5 67 L 61.5 67 L 61.5 66 z M 29.5 68 L 30.5 68 L 30.5 69 L 29.5 69 L 29.5 68 z M 31.5 68 L 38.5 68 L 38.5 69 L 31.5 69 L 31.5 68 z M 39.5 68 L 40.5 68 L 40.5 69 L 39.5 69 L 39.5 68 z M 41.5 68 L 44.5 68 L 44.5 74 L 43 74 L 41.5 74 L 41.5 68 z M 55.5 68 L 58.5 68 L 58.5 74 L 57.75 74 L 55.5 74 L 55.5 68 z M 59.5 68 L 60.5 68 L 60.5 69 L 59.5 69 L 59.5 68 z M 61.5 68 L 68.5 68 L 68.5 69 L 61.5 69 L 61.5 68 z M 69.5 68 L 70.5 68 L 70.5 69 L 69.5 69 L 69.5 68 z M 29.5 70 L 30.5 70 L 30.5 74 L 29.5 74 L 29.5 70 z M 31.5 70 L 32.5 70 L 32.5 72.5 C 32.5 72.776 32.724 73 33 73 L 37 73 C 37.276 73 37.5 72.776 37.5 72.5 L 37.5 70 L 38.5 70 L 38.5 74 L 31.5 74 L 31.5 70 z M 33.5 70 L 36.5 70 L 36.5 72 L 33.5 72 L 33.5 70 z M 39.5 70 L 40.5 70 L 40.5 74 L 39.5 74 L 39.5 70 z M 59.5 70 L 60.5 70 L 60.5 74 L 59.5 74 L 59.5 70 z M 61.5 70 L 62.5 70 L 62.5 72.5 C 62.5 72.776 62.724 73 63 73 L 67 73 C 67.276 73 67.5 72.776 67.5 72.5 L 67.5 70 L 68.5 70 L 68.5 74 L 61.5 74 L 61.5 70 z M 63.5 70 L 66.5 70 L 66.5 72 L 63.5 72 L 63.5 70 z M 69.5 70 L 70.5 70 L 70.5 74 L 69.5 74 L 69.5 70 z M 27.998047 75 L 42.066406 75 L 40.732422 77 L 29.330078 77 L 27.998047 75 z M 43.267578 75 L 44.5 75 L 44.5 90 L 41.5 90 L 41.5 77.652344 L 43.267578 75 z M 55.5 75 L 56.796875 75 L 58.5 77.554688 L 58.5 90 L 55.5 90 L 55.5 75 z M 57.998047 75 L 72.066406 75 L 70.732422 77 L 59.330078 77 L 57.998047 75 z M 29.5 78 L 30.5 78 L 30.5 87 L 29.5 87 L 29.5 78 z M 31.5 78 L 38.5 78 L 38.5 87 L 31.5 87 L 31.5 78 z M 39.5 78 L 40.5 78 L 40.5 87 L 39.5 87 L 39.5 78 z M 59.5 78 L 60.5 78 L 60.5 87 L 59.5 87 L 59.5 78 z M 61.5 78 L 68.5 78 L 68.5 87 L 61.5 87 L 61.5 78 z M 69.5 78 L 70.5 78 L 70.5 87 L 69.5 87 L 69.5 78 z M 29.5 88 L 30.5 88 L 30.5 90 L 29.5 90 L 29.5 88 z M 31.5 88 L 32.5 88 L 32.5 90 L 31.5 90 L 31.5 88 z M 33.5 88 L 36.5 88 L 36.5 90 L 33.5 90 L 33.5 88 z M 37.5 88 L 38.5 88 L 38.5 90 L 37.5 90 L 37.5 88 z M 39.5 88 L 40.5 88 L 40.5 90 L 39.5 90 L 39.5 88 z M 59.5 88 L 60.5 88 L 60.5 90 L 59.5 90 L 59.5 88 z M 61.5 88 L 62.5 88 L 62.5 90 L 61.5 90 L 61.5 88 z M 63.5 88 L 66.5 88 L 66.5 90 L 63.5 90 L 63.5 88 z M 67.5 88 L 68.5 88 L 68.5 90 L 67.5 90 L 67.5 88 z M 69.5 88 L 70.5 88 L 70.5 90 L 69.5 90 L 69.5 88 z " class="color594454 svgShape"></path></svg></g></svg>