<svg id="SvgjsSvg1139" width="288" height="288" xmlns="http://www.w3.org/2000/svg" version="1.1" xmlns:xlink="http://www.w3.org/1999/xlink" xmlns:svgjs="http://svgjs.com/svgjs"><defs id="SvgjsDefs1140"></defs><g id="SvgjsG1141" transform="matrix(1,0,0,1,0,0)"><svg xmlns="http://www.w3.org/2000/svg" enable-background="new 0 0 100 100" viewBox="0 0 100 100" width="288" height="288"><path fill="#000000" d="M 34.5 17.980469 C 34.311 17.980469 34.137734 18.086859 34.052734 18.255859 L 32.191406 21.980469 L 30.5 21.980469 C 30.311 21.980469 30.137734 22.086859 30.052734 22.255859 L 27.052734 28.255859 C 27.050599 28.260102 27.052787 28.265247 27.050781 28.269531 C 27.020419 28.33404 27 28.402537 27 28.478516 L 27 30.478516 C 27 30.754516 27.224 30.978516 27.5 30.978516 L 29 30.978516 L 29 38.527344 L 23.550781 37.982422 C 23.543527 37.981541 23.536552 37.984909 23.529297 37.984375 C 23.519102 37.983754 23.51035 37.978516 23.5 37.978516 L 13.5 37.978516 C 13.48965 37.978516 13.480898 37.983754 13.470703 37.984375 C 13.463412 37.984863 13.456525 37.981593 13.449219 37.982422 L 3.4492188 38.982422 C 3.1932187 39.007422 3 39.221516 3 39.478516 L 3 51.478516 L 3 90 L 0.74609375 90 C 0.29833175 90 0 90.2 0 90.5 C 7.4014868e-017 90.8 0.29833175 91 0.74609375 91 L 99.253906 91 C 99.701666 91 100 90.8 100 90.5 C 100 90.2 99.701666 90 99.253906 90 L 98 90 L 98 51.478516 L 98 39.478516 C 98 39.221516 97.806781 39.007422 97.550781 38.982422 L 87.550781 37.982422 C 87.543527 37.981541 87.536552 37.984909 87.529297 37.984375 C 87.519102 37.983754 87.51035 37.978516 87.5 37.978516 L 77.5 37.978516 C 77.48965 37.978516 77.480898 37.983754 77.470703 37.984375 C 77.463412 37.984863 77.456525 37.981593 77.449219 37.982422 L 72 38.527344 L 72 30.978516 L 73.5 30.978516 C 73.776 30.978516 74 30.755516 74 30.478516 L 74 28.478516 C 74 28.472218 73.996325 28.467179 73.996094 28.460938 C 73.99514 28.43318 73.986172 28.406574 73.980469 28.378906 C 73.972627 28.341724 73.96678 28.305125 73.951172 28.271484 C 73.948855 28.266421 73.949766 28.260881 73.947266 28.255859 L 70.947266 22.255859 C 70.862266 22.086859 70.689 21.978516 70.5 21.978516 L 68.808594 21.978516 L 66.947266 18.255859 C 66.862266 18.086859 66.689 17.980469 66.5 17.980469 L 34.5 17.980469 z M 34.808594 18.978516 L 66.191406 18.978516 L 67.734375 22.064453 C 67.596134 22.153438 67.5 22.302006 67.5 22.478516 C 67.5 22.754516 67.724 22.978516 68 22.978516 L 68.191406 22.978516 L 68.691406 23.978516 L 32.308594 23.978516 L 34.808594 18.978516 z M 69.308594 22.978516 L 70.191406 22.978516 L 72.691406 27.978516 L 68 27.978516 L 68 26.978516 L 69.5 26.978516 C 69.776 26.978516 70 26.755516 70 26.478516 L 70 24.478516 C 70 24.402537 69.979581 24.33404 69.949219 24.269531 C 69.947238 24.265247 69.949373 24.260102 69.947266 24.255859 L 69.308594 22.978516 z M 30.808594 22.980469 L 31.691406 22.980469 L 31.052734 24.255859 C 31.050599 24.260102 31.052787 24.265247 31.050781 24.269531 C 31.020419 24.33404 31 24.402537 31 24.478516 L 31 26.478516 C 31 26.754516 31.224 26.978516 31.5 26.978516 L 33 26.978516 L 33 27.978516 L 28.308594 27.978516 L 30.808594 22.980469 z M 32 24.978516 L 69 24.978516 L 69 25.978516 L 32 25.978516 L 32 24.978516 z M 34 26.978516 L 38 26.978516 L 38 31.126953 C 37.730176 31.035243 37.402971 30.978516 37 30.978516 C 35.897 30.978516 35 31.707516 35 32.603516 L 35 32.978516 C 34.724 32.978516 34.5 33.202516 34.5 33.478516 C 34.5 33.754516 34.724 33.978516 35 33.978516 L 35 38.978516 L 34 38.978516 L 34 30.478516 L 34 28.478516 L 34 26.978516 z M 39 26.978516 L 62 26.978516 L 62 32.978516 C 61.724 32.978516 61.5 33.202516 61.5 33.478516 C 61.5 33.754516 61.724 33.978516 62 33.978516 L 62 38.978516 L 61 38.978516 L 61.003906 29.978516 C 61.003906 28.875516 59.881953 27.978516 58.501953 27.978516 C 57.682053 27.978516 56.958347 28.300111 56.501953 28.789062 C 56.045476 28.299971 55.322586 27.978516 54.501953 27.978516 C 53.682053 27.978516 52.958347 28.300111 52.501953 28.789062 C 52.045476 28.299971 51.322586 27.978516 50.501953 27.978516 C 49.682053 27.978516 48.958347 28.300111 48.501953 28.789062 C 48.045476 28.299971 47.322586 27.978516 46.501953 27.978516 C 45.682053 27.978516 44.958347 28.300111 44.501953 28.789062 C 44.045476 28.299971 43.322586 27.978516 42.501953 27.978516 C 41.122953 27.978516 40 28.875516 40 29.978516 L 40 30.978516 C 39.724 30.978516 39.5 31.202516 39.5 31.478516 C 39.5 31.754516 39.724 31.978516 40 31.978516 L 40 38.978516 L 39 38.978516 L 39 26.978516 z M 63 26.978516 L 67 26.978516 L 67 28.478516 L 67 30.478516 L 67 38.978516 L 66 38.978516 L 66 32.978516 C 66 32.91166 65.986733 32.849324 65.962891 32.791016 C 65.9863 32.733112 66 32.669969 66 32.603516 C 66 31.708516 65.103 30.978516 64 30.978516 C 63.633858 30.978516 63.295468 31.065123 63 31.205078 L 63 26.978516 z M 28 28.978516 L 33 28.978516 L 33 29.978516 L 28 29.978516 L 28 28.978516 z M 42.501953 28.978516 C 43.294985 28.978516 43.989875 29.439588 44.001953 29.964844 C 44.001913 29.969531 44 29.973821 44 29.978516 L 44 30.978516 C 43.724 30.978516 43.5 31.202516 43.5 31.478516 C 43.5 31.754516 43.724 31.978516 44 31.978516 L 44 36.978516 L 41 36.978516 L 41 31.978516 C 41.276 31.978516 41.5 31.754516 41.5 31.478516 C 41.5 31.202516 41.276 30.978516 41 30.978516 L 41 29.978516 C 41 29.446516 41.701953 28.978516 42.501953 28.978516 z M 46.501953 28.978516 C 47.294985 28.978516 47.989875 29.439588 48.001953 29.964844 C 48.001913 29.969531 48 29.973821 48 29.978516 L 48 30.978516 C 47.724 30.978516 47.5 31.202516 47.5 31.478516 C 47.5 31.754516 47.724 31.978516 48 31.978516 L 48 36.978516 L 45.001953 36.978516 L 45.003906 31.978516 C 45.278078 31.976376 45.5 31.753189 45.5 31.478516 C 45.5 31.203843 45.278078 30.980655 45.003906 30.978516 L 45.003906 29.978516 C 45.003906 29.973823 45.001994 29.969528 45.001953 29.964844 C 45.014036 29.438624 45.708934 28.978516 46.501953 28.978516 z M 50.501953 28.978516 C 51.294985 28.978516 51.989875 29.439588 52.001953 29.964844 C 52.001913 29.969531 52 29.973821 52 29.978516 L 52 30.978516 C 51.724 30.978516 51.5 31.202516 51.5 31.478516 C 51.5 31.754516 51.724 31.978516 52 31.978516 L 52 36.978516 L 49.001953 36.978516 L 49.003906 31.978516 C 49.278078 31.976376 49.5 31.753189 49.5 31.478516 C 49.5 31.203843 49.278078 30.980655 49.003906 30.978516 L 49.003906 29.978516 C 49.003906 29.973823 49.001994 29.969528 49.001953 29.964844 C 49.014036 29.438624 49.708934 28.978516 50.501953 28.978516 z M 54.501953 28.978516 C 55.294985 28.978516 55.989875 29.439588 56.001953 29.964844 C 56.001913 29.969531 56 29.973821 56 29.978516 L 56 30.978516 C 55.724 30.978516 55.5 31.202516 55.5 31.478516 C 55.5 31.754516 55.724 31.978516 56 31.978516 L 56 36.978516 L 53.001953 36.978516 L 53.003906 31.978516 C 53.278078 31.976376 53.5 31.753189 53.5 31.478516 C 53.5 31.203843 53.278078 30.980655 53.003906 30.978516 L 53.003906 29.978516 C 53.003906 29.973823 53.001994 29.969528 53.001953 29.964844 C 53.014036 29.438624 53.708934 28.978516 54.501953 28.978516 z M 58.501953 28.978516 C 59.301953 28.978516 60.003906 29.447516 60.003906 29.978516 L 60.003906 30.986328 C 59.87262 30.985377 59.739839 31.033464 59.648438 31.128906 C 59.549438 31.219906 59.5 31.348516 59.5 31.478516 C 59.5 31.608516 59.548437 31.738125 59.648438 31.828125 C 59.739438 31.928125 59.87 31.978516 60 31.978516 C 60.001291 31.978516 60.002616 31.978525 60.003906 31.978516 L 60.001953 36.978516 L 57.001953 36.978516 L 57.003906 31.978516 C 57.278078 31.976376 57.5 31.753189 57.5 31.478516 C 57.5 31.203843 57.278078 30.980655 57.003906 30.978516 L 57.003906 29.978516 C 57.003906 29.973823 57.001994 29.969528 57.001953 29.964844 C 57.014036 29.438624 57.708934 28.978516 58.501953 28.978516 z M 68 28.978516 L 73 28.978516 L 73 29.978516 L 68 29.978516 L 68 28.978516 z M 30 30.978516 L 33 30.978516 L 33 38.927734 L 30 38.626953 L 30 30.978516 z M 68 30.978516 L 71 30.978516 L 71 38.626953 L 68 38.927734 L 68 30.978516 z M 37 31.978516 C 37.481 31.978516 38 32.100141 38 32.369141 L 38 33 C 37.870644 33.000666 37.744865 33.035102 37.650391 33.128906 C 37.551391 33.219906 37.501953 33.348516 37.501953 33.478516 C 37.501953 33.608516 37.550391 33.738125 37.650391 33.828125 C 37.690391 33.877125 37.750547 33.918453 37.810547 33.939453 C 37.870547 33.969453 37.93 33.978516 38 33.978516 L 38 36.978516 L 36 36.978516 L 36 33.978516 C 36.276 33.978516 36.5 33.754516 36.5 33.478516 C 36.5 33.202516 36.276 32.978516 36 32.978516 L 36 32.603516 C 36 32.308516 36.428 31.978516 37 31.978516 z M 64 31.978516 C 64.572 31.978516 65 32.308516 65 32.603516 C 65 32.670371 65.013267 32.732707 65.037109 32.791016 C 65.013267 32.849324 65 32.91166 65 32.978516 L 65 33 C 64.8675 32.999981 64.738739 33.034488 64.650391 33.128906 C 64.551391 33.219906 64.501953 33.348516 64.501953 33.478516 C 64.501953 33.608516 64.550391 33.738125 64.650391 33.828125 C 64.690391 33.877125 64.750547 33.918453 64.810547 33.939453 C 64.870547 33.969453 64.93 33.978516 65 33.978516 L 65 36.978516 L 63 36.978516 L 63 33.978516 C 63.276 33.978516 63.5 33.754516 63.5 33.478516 C 63.5 33.202516 63.276 32.978516 63 32.978516 L 63 32.603516 C 63 32.308516 63.428 31.978516 64 31.978516 z M 36 37.978516 L 38 37.978516 L 38 38.978516 L 36 38.978516 L 36 37.978516 z M 41 37.978516 L 44 37.978516 L 44 38.978516 L 41 38.978516 L 41 37.978516 z M 45 37.978516 L 48 37.978516 L 48 38.978516 L 45 38.978516 L 45 37.978516 z M 49 37.978516 L 52 37.978516 L 52 38.978516 L 49 38.978516 L 49 37.978516 z M 53 37.978516 L 56 37.978516 L 56 38.978516 L 53 38.978516 L 53 37.978516 z M 57 37.978516 L 60 37.978516 L 60 38.978516 L 57 38.978516 L 57 37.978516 z M 63 37.978516 L 65 37.978516 L 65 38.978516 L 63 38.978516 L 63 37.978516 z M 14 38.978516 L 23 38.978516 L 23 40.978516 L 14 40.978516 L 14 38.978516 z M 78 38.978516 L 87 38.978516 L 87 40.978516 L 78 40.978516 L 78 38.978516 z M 13 39.03125 L 13 40.978516 L 4 40.978516 L 4 39.931641 L 13 39.03125 z M 24 39.03125 L 33 39.931641 L 33 40.978516 L 24 40.978516 L 24 39.03125 z M 77 39.03125 L 77 40.978516 L 68 40.978516 L 68 39.931641 L 77 39.03125 z M 88 39.03125 L 97 39.931641 L 97 40.978516 L 88 40.978516 L 88 39.03125 z M 34 39.978516 L 37 39.978516 L 37 40.978516 L 34 40.978516 L 34 39.978516 z M 38 39.978516 L 63 39.978516 L 63 41.978516 L 38 41.978516 L 38 39.978516 z M 64 39.978516 L 67 39.978516 L 67 40.978516 L 64 40.978516 L 64 39.978516 z M 4 41.978516 L 13 41.978516 L 13 50.978516 L 4 50.978516 L 4 41.978516 z M 14 41.978516 L 23 41.978516 L 23 50.978516 L 14 50.978516 L 14 41.978516 z M 24 41.978516 L 33 41.978516 L 33 50.978516 L 24 50.978516 L 24 41.978516 z M 34 41.978516 L 37 41.978516 L 37 42.478516 C 37 42.754516 37.224 42.978516 37.5 42.978516 L 38 42.978516 L 38 45.478516 L 38 49.478516 L 38 50.8125 L 38 51 L 34 51 L 34 41.978516 z M 64 41.978516 L 67 41.978516 L 67 51 L 63 51 L 63 50.8125 L 63 45.478516 L 63 42.978516 L 63.5 42.978516 C 63.776 42.978516 64 42.755516 64 42.478516 L 64 41.978516 z M 68 41.978516 L 77 41.978516 L 77 50.978516 L 68 50.978516 L 68 41.978516 z M 78 41.978516 L 87 41.978516 L 87 50.978516 L 78 50.978516 L 78 41.978516 z M 88 41.978516 L 97 41.978516 L 97 50.978516 L 88 50.978516 L 88 41.978516 z M 39 42.978516 L 62 42.978516 L 62 44.978516 L 39 44.978516 L 39 43.978516 L 39 42.978516 z M 8.5 43.978516 C 7.673 43.978516 7 44.651516 7 45.478516 L 7 48.478516 C 7 48.754516 7.224 48.978516 7.5 48.978516 L 9.5 48.978516 C 9.776 48.978516 10 48.755516 10 48.478516 L 10 45.478516 C 10 44.651516 9.327 43.978516 8.5 43.978516 z M 18.5 43.978516 C 17.673 43.978516 17 44.651516 17 45.478516 L 17 48.478516 C 17 48.754516 17.224 48.978516 17.5 48.978516 L 19.5 48.978516 C 19.776 48.978516 20 48.755516 20 48.478516 L 20 45.478516 C 20 44.651516 19.327 43.978516 18.5 43.978516 z M 28.5 43.978516 C 27.673 43.978516 27 44.651516 27 45.478516 L 27 48.478516 C 27 48.754516 27.224 48.978516 27.5 48.978516 L 29.5 48.978516 C 29.776 48.978516 30 48.755516 30 48.478516 L 30 45.478516 C 30 44.651516 29.327 43.978516 28.5 43.978516 z M 72.5 43.978516 C 71.673 43.978516 71 44.651516 71 45.478516 L 71 48.478516 C 71 48.754516 71.224 48.978516 71.5 48.978516 L 73.5 48.978516 C 73.776 48.978516 74 48.755516 74 48.478516 L 74 45.478516 C 74 44.651516 73.327 43.978516 72.5 43.978516 z M 82.5 43.978516 C 81.673 43.978516 81 44.651516 81 45.478516 L 81 48.478516 C 81 48.754516 81.224 48.978516 81.5 48.978516 L 83.5 48.978516 C 83.776 48.978516 84 48.755516 84 48.478516 L 84 45.478516 C 84 44.651516 83.327 43.978516 82.5 43.978516 z M 92.5 43.978516 C 91.673 43.978516 91 44.651516 91 45.478516 L 91 48.478516 C 91 48.754516 91.224 48.978516 91.5 48.978516 L 93.5 48.978516 C 93.776 48.978516 94 48.755516 94 48.478516 L 94 45.478516 C 94 44.651516 93.327 43.978516 92.5 43.978516 z M 5.5 44 C 5.224 44 5 44.223 5 44.5 L 5 48.5 C 5 48.776 5.224 49 5.5 49 C 5.776 49 6 48.776 6 48.5 L 6 44.5 C 6 44.223 5.776 44 5.5 44 z M 11.5 44 C 11.224 44 11 44.224 11 44.5 L 11 48.5 C 11 48.776 11.224 49 11.5 49 C 11.776 49 12 48.776 12 48.5 L 12 44.5 C 12 44.224 11.776 44 11.5 44 z M 15.5 44 C 15.224 44 15 44.224 15 44.5 L 15 48.5 C 15 48.776 15.224 49 15.5 49 C 15.776 49 16 48.776 16 48.5 L 16 44.5 C 16 44.224 15.776 44 15.5 44 z M 21.5 44 C 21.224 44 21 44.224 21 44.5 L 21 48.5 C 21 48.776 21.224 49 21.5 49 C 21.776 49 22 48.776 22 48.5 L 22 44.5 C 22 44.224 21.776 44 21.5 44 z M 25.5 44 C 25.224 44 25 44.224 25 44.5 L 25 48.5 C 25 48.776 25.224 49 25.5 49 C 25.776 49 26 48.776 26 48.5 L 26 44.5 C 26 44.224 25.776 44 25.5 44 z M 31.5 44 C 31.224 44 31 44.224 31 44.5 L 31 48.5 C 31 48.776 31.224 49 31.5 49 C 31.776 49 32 48.776 32 48.5 L 32 44.5 C 32 44.224 31.776 44 31.5 44 z M 69.5 44 C 69.224 44 69 44.224 69 44.5 L 69 48.5 C 69 48.776 69.224 49 69.5 49 C 69.776 49 70 48.776 70 48.5 L 70 44.5 C 70 44.224 69.776 44 69.5 44 z M 75.5 44 C 75.224 44 75 44.224 75 44.5 L 75 48.5 C 75 48.776 75.224 49 75.5 49 C 75.776 49 76 48.776 76 48.5 L 76 44.5 C 76 44.224 75.776 44 75.5 44 z M 79.5 44 C 79.224 44 79 44.224 79 44.5 L 79 48.5 C 79 48.776 79.224 49 79.5 49 C 79.776 49 80 48.776 80 48.5 L 80 44.5 C 80 44.224 79.776 44 79.5 44 z M 85.5 44 C 85.224 44 85 44.224 85 44.5 L 85 48.5 C 85 48.776 85.224 49 85.5 49 C 85.776 49 86 48.776 86 48.5 L 86 44.5 C 86 44.224 85.776 44 85.5 44 z M 89.5 44 C 89.224 44 89 44.224 89 44.5 L 89 48.5 C 89 48.776 89.224 49 89.5 49 C 89.776 49 90 48.776 90 48.5 L 90 44.5 C 90 44.224 89.776 44 89.5 44 z M 95.5 44 C 95.224 44 95 44.224 95 44.5 L 95 48.5 C 95 48.776 95.224 49 95.5 49 C 95.776 49 96 48.776 96 48.5 L 96 44.5 C 96 44.224 95.776 44 95.5 44 z M 8.5 44.978516 C 8.775 44.978516 9 45.203516 9 45.478516 L 9 47.978516 L 8 47.978516 L 8 45.478516 C 8 45.203516 8.225 44.978516 8.5 44.978516 z M 18.5 44.978516 C 18.775 44.978516 19 45.203516 19 45.478516 L 19 47.978516 L 18 47.978516 L 18 45.478516 C 18 45.203516 18.225 44.978516 18.5 44.978516 z M 28.5 44.978516 C 28.775 44.978516 29 45.203516 29 45.478516 L 29 47.978516 L 28 47.978516 L 28 45.478516 C 28 45.203516 28.225 44.978516 28.5 44.978516 z M 72.5 44.978516 C 72.775 44.978516 73 45.203516 73 45.478516 L 73 47.978516 L 72 47.978516 L 72 45.478516 C 72 45.203516 72.225 44.978516 72.5 44.978516 z M 82.5 44.978516 C 82.775 44.978516 83 45.203516 83 45.478516 L 83 47.978516 L 82 47.978516 L 82 45.478516 C 82 45.203516 82.225 44.978516 82.5 44.978516 z M 92.5 44.978516 C 92.775 44.978516 93 45.203516 93 45.478516 L 93 47.978516 L 92 47.978516 L 92 45.478516 C 92 45.203516 92.225 44.978516 92.5 44.978516 z M 39 45.978516 L 62 45.978516 L 62 47.492188 C 61.580816 47.174752 61.065424 46.978516 60.5 46.978516 C 59.678974 46.978516 58.955984 47.381541 58.5 47.994141 C 58.044016 47.381541 57.321026 46.978516 56.5 46.978516 C 55.678974 46.978516 54.955984 47.381541 54.5 47.994141 C 54.044016 47.381541 53.321026 46.978516 52.5 46.978516 C 51.678974 46.978516 50.955984 47.381541 50.5 47.994141 C 50.044016 47.381541 49.321026 46.978516 48.5 46.978516 C 47.678974 46.978516 46.955984 47.381541 46.5 47.994141 C 46.044016 47.381541 45.321026 46.978516 44.5 46.978516 C 43.678974 46.978516 42.955984 47.381541 42.5 47.994141 C 42.044016 47.381541 41.321026 46.978516 40.5 46.978516 C 39.934576 46.978516 39.419184 47.174752 39 47.492188 L 39 45.978516 z M 40.5 47.978516 C 41.327 47.978516 42 48.651516 42 49.478516 L 42 50.8125 C 42 50.871719 42.014278 50.925783 42.033203 50.978516 L 39 50.978516 L 39 49.478516 C 39 48.651516 39.673 47.978516 40.5 47.978516 z M 44.5 47.978516 C 45.327 47.978516 46 48.651516 46 49.478516 L 46 50.8125 C 46 50.871719 46.014278 50.925783 46.033203 50.978516 L 42.966797 50.978516 C 42.985722 50.925783 43 50.871719 43 50.8125 L 43 49.478516 C 43 48.651516 43.673 47.978516 44.5 47.978516 z M 48.5 47.978516 C 49.327 47.978516 50 48.651516 50 49.478516 L 50 50.8125 C 50 50.871719 50.014278 50.925783 50.033203 50.978516 L 46.966797 50.978516 C 46.985722 50.925783 47 50.871719 47 50.8125 L 47 49.478516 C 47 48.651516 47.673 47.978516 48.5 47.978516 z M 52.5 47.978516 C 53.327 47.978516 54 48.651516 54 49.478516 L 54 50.8125 C 54 50.871719 54.014278 50.925783 54.033203 50.978516 L 50.966797 50.978516 C 50.985722 50.925783 51 50.871719 51 50.8125 L 51 49.478516 C 51 48.651516 51.673 47.978516 52.5 47.978516 z M 56.5 47.978516 C 57.327 47.978516 58 48.651516 58 49.478516 L 58 50.8125 C 58 50.871719 58.014278 50.925783 58.033203 50.978516 L 54.966797 50.978516 C 54.985722 50.925783 55 50.871719 55 50.8125 L 55 49.478516 C 55 48.651516 55.673 47.978516 56.5 47.978516 z M 60.5 47.978516 C 61.327 47.978516 62 48.651516 62 49.478516 L 62 50.978516 L 58.966797 50.978516 C 58.985722 50.925783 59 50.871719 59 50.8125 L 59 49.478516 C 59 48.651516 59.673 47.978516 60.5 47.978516 z M 4 51.978516 L 13 51.978516 L 13 52.978516 L 4 52.978516 L 4 51.978516 z M 14 51.978516 L 23 51.978516 L 23 52.978516 L 14 52.978516 L 14 51.978516 z M 24 51.978516 L 33 51.978516 L 33 52.978516 L 24 52.978516 L 24 51.978516 z M 39 51.978516 L 62 51.978516 L 62 52.978516 L 39 52.978516 L 39 51.978516 z M 68 51.978516 L 77 51.978516 L 77 52.978516 L 69.5 52.978516 L 68 52.978516 L 68 51.978516 z M 78 51.978516 L 87 51.978516 L 87 52.978516 L 78 52.978516 L 78 51.978516 z M 88 51.978516 L 97 51.978516 L 97 52.978516 L 88 52.978516 L 88 51.978516 z M 34 52 L 38 52 L 38 52.978516 L 34 52.978516 L 34 52 z M 63 52 L 67 52 L 67 52.978516 L 63 52.978516 L 63 52 z M 4 53.978516 L 13 53.978516 L 13 89.978516 L 4 89.978516 L 4 53.978516 z M 14 53.978516 L 23 53.978516 L 23 89.978516 L 14 89.978516 L 14 53.978516 z M 24 53.978516 L 33 53.978516 L 33 89.978516 L 24 89.978516 L 24 53.978516 z M 34 53.978516 L 38 53.978516 L 38 89.978516 L 34 89.978516 L 34 53.978516 z M 39 53.978516 L 62 53.978516 L 62 89.978516 L 60 89.978516 L 60 75.054688 C 60 72.055687 58.3955 69.248516 55.8125 67.728516 L 51.255859 65.048828 C 51.092859 64.953828 50.892375 64.955641 50.734375 65.056641 L 45.970703 68.056641 C 43.483703 69.620641 42 72.309047 42 75.248047 L 42 89.978516 L 39 89.978516 L 39 53.978516 z M 63 53.978516 L 67 53.978516 L 67 89.978516 L 63 89.978516 L 63 53.978516 z M 68 53.978516 L 69.5 53.978516 L 77 53.978516 L 77 89.978516 L 68 89.978516 L 68 53.978516 z M 78 53.978516 L 87 53.978516 L 87 89.978516 L 78 89.978516 L 78 53.978516 z M 88 53.978516 L 97 53.978516 L 97 89.978516 L 88 89.978516 L 88 53.978516 z M 5.5 56 C 5.224 56 5 56.223 5 56.5 L 5 62.5 C 5 62.776 5.224 63 5.5 63 C 5.776 63 6 62.776 6 62.5 L 6 56.5 C 6 56.223 5.776 56 5.5 56 z M 8.5 56 C 8.224 56 8 56.223 8 56.5 L 8 62.5 C 8 62.776 8.224 63 8.5 63 C 8.776 63 9 62.776 9 62.5 L 9 56.5 C 9 56.223 8.776 56 8.5 56 z M 11.5 56 C 11.224 56 11 56.224 11 56.5 L 11 62.5 C 11 62.776 11.224 63 11.5 63 C 11.776 63 12 62.776 12 62.5 L 12 56.5 C 12 56.224 11.776 56 11.5 56 z M 15.5 56 C 15.224 56 15 56.224 15 56.5 L 15 62.5 C 15 62.776 15.224 63 15.5 63 C 15.776 63 16 62.776 16 62.5 L 16 56.5 C 16 56.224 15.776 56 15.5 56 z M 18.5 56 C 18.224 56 18 56.224 18 56.5 L 18 62.5 C 18 62.776 18.224 63 18.5 63 C 18.776 63 19 62.776 19 62.5 L 19 56.5 C 19 56.224 18.776 56 18.5 56 z M 21.5 56 C 21.224 56 21 56.224 21 56.5 L 21 62.5 C 21 62.776 21.224 63 21.5 63 C 21.776 63 22 62.776 22 62.5 L 22 56.5 C 22 56.224 21.776 56 21.5 56 z M 25.5 56 C 25.224 56 25 56.224 25 56.5 L 25 62.5 C 25 62.776 25.224 63 25.5 63 C 25.776 63 26 62.776 26 62.5 L 26 56.5 C 26 56.224 25.776 56 25.5 56 z M 28.5 56 C 28.224 56 28 56.224 28 56.5 L 28 62.5 C 28 62.776 28.224 63 28.5 63 C 28.776 63 29 62.776 29 62.5 L 29 56.5 C 29 56.224 28.776 56 28.5 56 z M 31.5 56 C 31.224 56 31 56.224 31 56.5 L 31 62.5 C 31 62.776 31.224 63 31.5 63 C 31.776 63 32 62.776 32 62.5 L 32 56.5 C 32 56.224 31.776 56 31.5 56 z M 36 56 C 35.724 56 35.5 56.224 35.5 56.5 L 35.5 62.5 C 35.5 62.776 35.724 63 36 63 C 36.276 63 36.5 62.776 36.5 62.5 L 36.5 56.5 C 36.5 56.224 36.276 56 36 56 z M 42.5 56 C 42.224 56 42 56.224 42 56.5 L 42 62.5 C 42 62.776 42.224 63 42.5 63 C 42.776 63 43 62.776 43 62.5 L 43 56.5 C 43 56.224 42.776 56 42.5 56 z M 46.5 56 C 46.224 56 46 56.224 46 56.5 L 46 62.5 C 46 62.776 46.224 63 46.5 63 C 46.776 63 47 62.776 47 62.5 L 47 56.5 C 47 56.224 46.776 56 46.5 56 z M 50.5 56 C 50.224 56 50 56.224 50 56.5 L 50 62.5 C 50 62.776 50.224 63 50.5 63 C 50.776 63 51 62.776 51 62.5 L 51 56.5 C 51 56.224 50.776 56 50.5 56 z M 54.5 56 C 54.224 56 54 56.224 54 56.5 L 54 62.5 C 54 62.776 54.224 63 54.5 63 C 54.776 63 55 62.776 55 62.5 L 55 56.5 C 55 56.224 54.776 56 54.5 56 z M 58.5 56 C 58.224 56 58 56.224 58 56.5 L 58 62.5 C 58 62.776 58.224 63 58.5 63 C 58.776 63 59 62.776 59 62.5 L 59 56.5 C 59 56.224 58.776 56 58.5 56 z M 65 56 C 64.724 56 64.5 56.224 64.5 56.5 L 64.5 62.5 C 64.5 62.776 64.724 63 65 63 C 65.276 63 65.5 62.776 65.5 62.5 L 65.5 56.5 C 65.5 56.224 65.276 56 65 56 z M 69.5 56 C 69.224 56 69 56.224 69 56.5 L 69 62.5 C 69 62.776 69.224 63 69.5 63 C 69.776 63 70 62.776 70 62.5 L 70 56.5 C 70 56.224 69.776 56 69.5 56 z M 72.5 56 C 72.224 56 72 56.224 72 56.5 L 72 62.5 C 72 62.776 72.224 63 72.5 63 C 72.776 63 73 62.776 73 62.5 L 73 56.5 C 73 56.224 72.776 56 72.5 56 z M 75.5 56 C 75.224 56 75 56.224 75 56.5 L 75 62.5 C 75 62.776 75.224 63 75.5 63 C 75.776 63 76 62.776 76 62.5 L 76 56.5 C 76 56.224 75.776 56 75.5 56 z M 79.5 56 C 79.224 56 79 56.224 79 56.5 L 79 62.5 C 79 62.776 79.224 63 79.5 63 C 79.776 63 80 62.776 80 62.5 L 80 56.5 C 80 56.224 79.776 56 79.5 56 z M 82.5 56 C 82.224 56 82 56.224 82 56.5 L 82 62.5 C 82 62.776 82.224 63 82.5 63 C 82.776 63 83 62.776 83 62.5 L 83 56.5 C 83 56.224 82.776 56 82.5 56 z M 85.5 56 C 85.224 56 85 56.224 85 56.5 L 85 62.5 C 85 62.776 85.224 63 85.5 63 C 85.776 63 86 62.776 86 62.5 L 86 56.5 C 86 56.224 85.776 56 85.5 56 z M 89.5 56 C 89.224 56 89 56.224 89 56.5 L 89 62.5 C 89 62.776 89.224 63 89.5 63 C 89.776 63 90 62.776 90 62.5 L 90 56.5 C 90 56.224 89.776 56 89.5 56 z M 92.5 56 C 92.224 56 92 56.224 92 56.5 L 92 62.5 C 92 62.776 92.224 63 92.5 63 C 92.776 63 93 62.776 93 62.5 L 93 56.5 C 93 56.224 92.776 56 92.5 56 z M 95.5 56 C 95.224 56 95 56.224 95 56.5 L 95 62.5 C 95 62.776 95.224 63 95.5 63 C 95.776 63 96 62.776 96 62.5 L 96 56.5 C 96 56.224 95.776 56 95.5 56 z M 44.5 63.978516 C 43.673 63.978516 43 64.651516 43 65.478516 C 43 66.305516 43.673 66.978516 44.5 66.978516 C 45.327 66.978516 46 66.305516 46 65.478516 C 46 64.651516 45.327 63.978516 44.5 63.978516 z M 56.5 63.978516 C 55.673 63.978516 55 64.651516 55 65.478516 C 55 66.305516 55.673 66.978516 56.5 66.978516 C 57.327 66.978516 58 66.305516 58 65.478516 C 58 64.651516 57.327 63.978516 56.5 63.978516 z M 44.5 64.978516 C 44.775 64.978516 45 65.203516 45 65.478516 C 45 65.753516 44.775 65.978516 44.5 65.978516 C 44.225 65.978516 44 65.753516 44 65.478516 C 44 65.203516 44.225 64.978516 44.5 64.978516 z M 56.5 64.978516 C 56.775 64.978516 57 65.203516 57 65.478516 C 57 65.753516 56.775 65.978516 56.5 65.978516 C 56.225 65.978516 56 65.753516 56 65.478516 C 56 65.203516 56.225 64.978516 56.5 64.978516 z M 51.009766 66.064453 L 55.302734 68.589844 C 57.582734 69.931844 59 72.408687 59 75.054688 L 59 89.978516 L 57 89.978516 L 57 75.107422 C 57 74.857047 56.983855 74.61018 56.951172 74.365234 C 56.722387 72.650617 55.711422 71.102969 54.201172 70.214844 L 51.253906 68.480469 C 51.253337 68.480137 51.252523 68.480798 51.251953 68.480469 L 50.990234 68.326172 L 50.732422 68.488281 L 47.650391 70.429688 C 45.990391 71.474687 45 73.270422 45 75.232422 L 45 89.978516 L 43 89.978516 L 43 75.248047 C 43 72.654047 44.309906 70.281391 46.503906 68.900391 L 51.009766 66.064453 z M 51.5 69.785156 L 53.693359 71.076172 C 54.107464 71.319746 54.469012 71.630007 54.783203 71.978516 L 51.5 71.978516 L 51.5 69.785156 z M 50.5 69.816406 L 50.5 71.978516 L 47.320312 71.978516 C 47.576774 71.715134 47.863172 71.47706 48.183594 71.275391 L 50.5 69.816406 z M 55.466797 72.960938 C 55.714358 73.438163 55.886875 73.955717 55.958984 74.496094 C 55.980233 74.655331 55.987621 74.816329 55.992188 74.978516 L 51.5 74.978516 L 51.5 72.978516 L 55.375 72.978516 C 55.407377 72.978516 55.436129 72.966825 55.466797 72.960938 z M 46.578125 72.96875 C 46.578294 72.968444 46.579909 72.969056 46.580078 72.96875 C 46.595623 72.970208 46.609076 72.978516 46.625 72.978516 L 50.5 72.978516 L 50.5 74.978516 L 46.015625 74.978516 C 46.053913 74.263093 46.242823 73.576429 46.578125 72.96875 z M 46 75.978516 L 50.5 75.978516 L 50.5 77.978516 L 46 77.978516 L 46 75.978516 z M 51.5 75.978516 L 56 75.978516 L 56 77.978516 L 51.5 77.978516 L 51.5 75.978516 z M 46 78.978516 L 50.5 78.978516 L 50.5 80.978516 L 46 80.978516 L 46 78.978516 z M 51.5 78.978516 L 56 78.978516 L 56 80.978516 L 51.5 80.978516 L 51.5 78.978516 z M 46 81.978516 L 50.5 81.978516 L 50.5 83.978516 L 46 83.978516 L 46 81.978516 z M 51.5 81.978516 L 56 81.978516 L 56 83.978516 L 51.5 83.978516 L 51.5 81.978516 z M 46 84.978516 L 50.5 84.978516 L 50.5 86.978516 L 46 86.978516 L 46 84.978516 z M 51.5 84.978516 L 56 84.978516 L 56 86.978516 L 51.5 86.978516 L 51.5 84.978516 z M 46 87.978516 L 50.5 87.978516 L 50.5 89.978516 L 46 89.978516 L 46 87.978516 z M 51.5 87.978516 L 56 87.978516 L 56 89.978516 L 51.5 89.978516 L 51.5 87.978516 z " class="color594454 svgShape"></path></svg></g></svg>